<svg id="Grupo_782" data-name="Grupo 782" xmlns="http://www.w3.org/2000/svg" width="21.36" height="29.86" viewBox="0 0 21.36 29.86">
  <g id="Grupo_575" data-name="Grupo 575" transform="translate(3.277 23.048)">
    <path id="Trazado_708" data-name="Trazado 708" d="M621.141,803.21l-15.815-.026a.884.884,0,0,1-.883-.887h0a.884.884,0,0,1,.886-.883l15.815.026Z" transform="translate(-604.443 -801.414)" fill="#fff"/>
  </g>
  <g id="Grupo_576" data-name="Grupo 576" transform="translate(0 5.475)">
    <path id="Trazado_709" data-name="Trazado 709" d="M615.333,796.006H603.8a4.914,4.914,0,0,1-4.907-5.2l.92-15.748a3.651,3.651,0,0,1,3.642-3.435h12.22a3.651,3.651,0,0,1,3.642,3.435l.92,15.749a4.914,4.914,0,0,1-4.907,5.2Zm-11.875-22.027a1.29,1.29,0,0,0-1.286,1.214l-.92,15.748a2.555,2.555,0,0,0,2.552,2.706h11.53a2.555,2.555,0,0,0,2.552-2.705l-.92-15.749a1.289,1.289,0,0,0-1.286-1.213Z" transform="translate(-598.888 -771.621)" fill="#fff"/>
  </g>
  <g id="Grupo_577" data-name="Grupo 577" transform="translate(5.467)">
    <path id="Trazado_710" data-name="Trazado 710" d="M617.605,773.459h0a1.18,1.18,0,0,1-1.18-1.18v-4.495a3.045,3.045,0,0,0-2.66-3.072,2.958,2.958,0,0,0-3.25,2.94v4.626a1.179,1.179,0,0,1-1.18,1.18h0a1.18,1.18,0,0,1-1.18-1.18v-4.439a5.439,5.439,0,0,1,4.951-5.49,5.32,5.32,0,0,1,5.678,5.3v4.626A1.18,1.18,0,0,1,617.605,773.459Z" transform="translate(-608.157 -762.339)" fill="#fff"/>
  </g>
</svg>
