<svg xmlns="http://www.w3.org/2000/svg" width="62.409" height="62.409" viewBox="0 0 62.409 62.409">
  <g id="Grupo_621" data-name="Grupo 621" transform="translate(1 1)">
    <line id="Línea_1" data-name="Línea 1" x2="1.949" transform="translate(14.615 41.897)" fill="none" stroke="#fff" stroke-linejoin="round" stroke-width="2"/>
    <path id="Trazado_764" data-name="Trazado 764" d="M17.564,47.589h-6.82L3.923,35.9H1V32H5.872l6.82,11.692h.974" transform="translate(-1 -1.795)" fill="none" stroke="#fff" stroke-linejoin="round" stroke-width="2"/>
    <path id="Trazado_765" data-name="Trazado 765" d="M30.615,52.461,19.9,48.564V39.795L16,38.82V32h7.795v6.82h2.923v1.949h6.82V52.461Z" transform="translate(-1.385 -1.795)" fill="none" stroke="#fff" stroke-linejoin="round" stroke-width="2"/>
    <ellipse id="Elipse_9" data-name="Elipse 9" cx="1.949" cy="1.949" rx="1.949" ry="1.949" transform="translate(21.436 40.922)" fill="none" stroke="#fff" stroke-linejoin="round" stroke-width="2"/>
    <path id="Trazado_766" data-name="Trazado 766" d="M17.964,31.9l-1.052-1.4A1.559,1.559,0,0,1,18.159,28h0a1.558,1.558,0,0,1,1.247.624L21.861,31.9" transform="translate(-1.4 -1.693)" fill="none" stroke="#fff" stroke-linejoin="round" stroke-width="2"/>
    <path id="Trazado_767" data-name="Trazado 767" d="M27,38.641V28.9c0-1.614,1.309-3.9,2.923-3.9h0c1.614,0,2.923,2.283,2.923,3.9V40.589" transform="translate(-1.667 -1.616)" fill="none" stroke="#fff" stroke-linejoin="round" stroke-width="2"/>
    <path id="Trazado_768" data-name="Trazado 768" d="M34.949,21v4.872L33,29.769" transform="translate(-1.821 -1.513)" fill="none" stroke="#fff" stroke-linejoin="round" stroke-width="2"/>
    <path id="Trazado_769" data-name="Trazado 769" d="M25,3.923V1h9.743V18.538" transform="translate(-1.616 -1)" fill="none" stroke="#fff" stroke-linejoin="round" stroke-width="2"/>
    <line id="Línea_2" data-name="Línea 2" y1="1.949" transform="translate(23.384 4.871)" fill="none" stroke="#fff" stroke-linejoin="round" stroke-width="2"/>
    <path id="Trazado_770" data-name="Trazado 770" d="M26.949,29.487,25,25.589V10" transform="translate(-1.616 -1.231)" fill="none" stroke="#fff" stroke-linejoin="round" stroke-width="2"/>
    <path id="Trazado_771" data-name="Trazado 771" d="M27,46l3.9,1.949H33.82" transform="translate(-1.667 -2.155)" fill="none" stroke="#fff" stroke-linejoin="round" stroke-width="2"/>
    <line id="Línea_3" data-name="Línea 3" y1="7.795" transform="translate(29.23 50.666)" fill="none" stroke="#fff" stroke-linejoin="round" stroke-width="2"/>
    <path id="Trazado_772" data-name="Trazado 772" d="M34,50l6.82,2.923,4.872,8.769" transform="translate(-1.847 -2.257)" fill="none" stroke="#fff" stroke-linejoin="round" stroke-width="2"/>
    <path id="Trazado_773" data-name="Trazado 773" d="M19.968,49l-.974,1.949a2.178,2.178,0,0,0,.974,2.923h0a2.178,2.178,0,0,0,2.923-.974l.974-1.949" transform="translate(-1.456 -2.232)" fill="none" stroke="#fff" stroke-linejoin="round" stroke-width="2"/>
    <path id="Trazado_774" data-name="Trazado 774" d="M26,55.9v2.134a1.948,1.948,0,0,0,1.755,1.939l29.424,2.748,4.872-3.9V57.359A1.462,1.462,0,0,0,60.589,55.9h0a1.462,1.462,0,0,0-1.462,1.462v.487l-1.949.974H54.256l2.923-3.9V53.462A1.462,1.462,0,0,0,55.717,52h0a1.462,1.462,0,0,0-1.462,1.462v.487L52.307,55.9l-10.718-.974" transform="translate(-1.641 -2.309)" fill="none" stroke="#fff" stroke-linejoin="round" stroke-width="2"/>
    <line id="Línea_4" data-name="Línea 4" x1="10.718" y1="0.974" transform="translate(41.897 55.538)" fill="none" stroke="#fff" stroke-linejoin="round" stroke-width="2"/>
    <g id="Grupo_620" data-name="Grupo 620" transform="translate(40.922 0)">
      <g id="Grupo_619" data-name="Grupo 619">
        <rect id="Rectángulo_71" data-name="Rectángulo 71" width="11.692" height="9.743" rx="2" transform="translate(0 9.743)" fill="none" stroke="#fff" stroke-linejoin="round" stroke-width="2"/>
        <ellipse id="Elipse_10" data-name="Elipse 10" cx="1.949" cy="1.949" rx="1.949" ry="1.949" transform="translate(3.897 12.666)" fill="none" stroke="#fff" stroke-linejoin="round" stroke-width="2"/>
        <path id="Trazado_775" data-name="Trazado 775" d="M53,8" transform="translate(-43.257 -1.18)" fill="none" stroke="#fff" stroke-linejoin="round" stroke-width="2"/>
        <path id="Trazado_776" data-name="Trazado 776" d="M52.795,7.82V1H45v9.743" transform="translate(-43.051 -1)" fill="none" stroke="#fff" stroke-linejoin="round" stroke-width="2"/>
      </g>
      <path id="Trazado_777" data-name="Trazado 777" d="M52.795,21v.974a1.948,1.948,0,0,1-1.949,1.949h-3.9A1.948,1.948,0,0,1,45,21.974V21" transform="translate(-43.051 -1.513)" fill="none" stroke="#fff" stroke-linejoin="round" stroke-width="2"/>
      <line id="Línea_5" data-name="Línea 5" y2="28.256" transform="translate(5.846 22.41)" fill="none" stroke="#fff" stroke-linejoin="round" stroke-width="2"/>
    </g>
  </g>
</svg>
