<svg xmlns="http://www.w3.org/2000/svg" width="81.964" height="52.76" viewBox="0 0 81.964 52.76">
  <g id="Grupo_970" data-name="Grupo 970" transform="translate(-411 -1358)">
    <g id="shoe" transform="translate(411 1380)">
      <path id="Trazado_754" data-name="Trazado 754" d="M.69,135.068l.009-.015a5.181,5.181,0,0,1,2.748-2.232l7.5-2.628a1.142,1.142,0,0,1,1.03.14l1.281.9a6.734,6.734,0,0,0,5.9.877c1.927-.621,4.178-1.824,4.86-3.114l.559-1.056L20.435,122a1.046,1.046,0,0,1,.141-1.363l4.459-4.249a1.138,1.138,0,0,1,1.122-.257l6.449,2.02c1.591-.209,10.593-1.467,15.17-3.693l3.569-1.736a2.745,2.745,0,0,1,2.38-.015,2.586,2.586,0,0,1,1.454,1.821l1.413,6.825a10.062,10.062,0,0,1-.07,4.421l-3.984,16.6a1.1,1.1,0,0,1-1.081.83H44.765a1.092,1.092,0,0,1-1.11-1.073v-9.118a6.567,6.567,0,0,0-6.545.942L27.5,141.612a7.393,7.393,0,0,1-4.592,1.593H7.061a7.481,7.481,0,0,1-2.913-.585l-1.013-.426A5.035,5.035,0,0,1,0,137.574a4.913,4.913,0,0,1,.69-2.505Zm25.423-16.694-3.323,3.166,3.525,5.053.581-.183a6.42,6.42,0,0,0,3.922-3.394,1.053,1.053,0,0,1,.059-.13,6.111,6.111,0,0,0,.514-2.456v-.4ZM45.875,141.06h4.7l3.785-15.769c.047-.2.084-.391.116-.587h-.7a7.782,7.782,0,0,0-7.9,7.636v8.721Zm-41.854-.833,1.013.426a5.206,5.206,0,0,0,2.027.407H22.906a5.12,5.12,0,0,0,3.18-1.1L35.7,132.3a8.844,8.844,0,0,1,8.087-1.523,10.041,10.041,0,0,1,9.994-8.219h.757c-.028-.262-.067-.523-.121-.784l-.63-3.043-3.833,1.685c-.35.166-1.027.4-1.938.705-.366.123-.711.24-.891.307a1.141,1.141,0,0,1-.4.073,1.111,1.111,0,0,1-1.035-.684,1.061,1.061,0,0,1,.632-1.388c.216-.081.563-.2.964-.333.579-.195,1.453-.49,1.694-.607l.039-.018,4.322-1.9L53,114.95a.441.441,0,0,0-.25-.313.467.467,0,0,0-.409,0l-3.569,1.736c-4.457,2.168-12.394,3.42-15.162,3.807v.248a8.213,8.213,0,0,1-.17,1.665c1.061-.15,2.529-.373,4.156-.669a1.108,1.108,0,0,1,1.3.855,1.076,1.076,0,0,1-.885,1.253c-2.406.438-4.436.716-5.407.841a8.638,8.638,0,0,1-5.018,4.075l-.941.3L26,129.971c-1.3,2.457-5.024,3.815-6.135,4.173a9.025,9.025,0,0,1-7.9-1.176l-.8-.564L4.2,134.838a2.975,2.975,0,0,0-1.578,1.282l-.009.015a2.823,2.823,0,0,0-.4,1.439A2.892,2.892,0,0,0,4.021,140.228Z" transform="translate(0 -112.445)" fill="#fff"/>
      <path id="Trazado_755" data-name="Trazado 755" d="M121.936,188.732a1.074,1.074,0,1,1-1.111,1.073A1.093,1.093,0,0,1,121.936,188.732Z" transform="translate(-79.656 -180.55)" fill="#fff"/>
      <path id="Trazado_756" data-name="Trazado 756" d="M251.185,195.666a1.074,1.074,0,1,1-1.111,1.073A1.093,1.093,0,0,1,251.185,195.666Z" transform="translate(-223.253 -186.74)" fill="#fff"/>
    </g>
    <g id="Grupo_618" data-name="Grupo 618" transform="translate(430.984 1358)">
      <g id="Grupo_617" data-name="Grupo 617" transform="translate(0 0)">
        <g id="Grupo_610" data-name="Grupo 610">
          <g id="Grupo_605" data-name="Grupo 605" transform="translate(32.723)">
            <g id="Grupo_602" data-name="Grupo 602">
              <path id="Trazado_758" data-name="Trazado 758" d="M46.368,38.178l-1.47-2.7L62.283,26A8.28,8.28,0,0,0,66.6,18.729v-.308c0-2.537-2.615-4.6-5.83-4.6s-5.83,2.066-5.83,4.6a4.229,4.229,0,0,0,4.6,4.6,1.534,1.534,0,0,1,.722,2.888l-18.41,9.818-1.443-2.707,14.962-7.979a7.33,7.33,0,0,1-3.5-6.623c0-4.229,3.991-7.671,8.9-7.671s8.9,3.441,8.9,7.671v.308A11.35,11.35,0,0,1,63.753,28.7Z" transform="translate(-40.412 -10.75)" fill="#fff"/>
            </g>
            <g id="Grupo_603" data-name="Grupo 603" transform="translate(5.221 26.08)">
              <path id="Trazado_759" data-name="Trazado 759" d="M44.666,32" transform="translate(-44.666 -32)" fill="#fff"/>
            </g>
            <g id="Grupo_604" data-name="Grupo 604" transform="translate(15.143 3.682)">
              <path id="Trazado_760" data-name="Trazado 760" d="M57.966,21.728c-2.925,0-5.216-1.753-5.216-3.989s2.291-3.989,5.216-3.989,5.216,1.753,5.216,3.989S60.891,21.728,57.966,21.728Zm0-4.909c-1.337,0-2.148.639-2.148.92s.811.92,2.148.92,2.148-.639,2.148-.92S59.3,16.818,57.966,16.818Z" transform="translate(-52.75 -13.75)" fill="#fff"/>
            </g>
          </g>
          <g id="Grupo_609" data-name="Grupo 609" transform="translate(0 9.818)">
            <g id="Grupo_606" data-name="Grupo 606" transform="translate(47.865 30.683)">
              <path id="Trazado_761" data-name="Trazado 761" d="M57.966,51.728c-2.925,0-5.216-1.753-5.216-3.989s2.291-3.989,5.216-3.989,5.216,1.753,5.216,3.989S60.891,51.728,57.966,51.728Zm0-4.909c-1.337,0-2.148.639-2.148.92s.811.92,2.148.92,2.148-.639,2.148-.92S59.3,46.818,57.966,46.818Z" transform="translate(-52.75 -43.75)" fill="#fff"/>
            </g>
            <g id="Grupo_607" data-name="Grupo 607">
              <path id="Trazado_762" data-name="Trazado 762" d="M59.965,41.271,46.459,33.9,23.5,21.818H21.369l1.479.8-1.456,2.7-6.836-3.681a1.535,1.535,0,0,1,.728-2.885h8.591a1.538,1.538,0,0,1,.714.177L47.909,31.2l13.526,7.376Z" transform="translate(-13.75 -18.75)" fill="#fff"/>
            </g>
            <g id="Grupo_608" data-name="Grupo 608" transform="translate(9.92 5.09)">
              <path id="Trazado_763" data-name="Trazado 763" d="M64.994,60.15c-4.907,0-8.9-3.441-8.9-7.671a7.33,7.33,0,0,1,3.5-6.623L44.635,37.878,21.833,25.6l1.456-2.7,22.8,12.276,18.4,9.816a1.534,1.534,0,0,1-.722,2.888,4.229,4.229,0,0,0-4.6,4.6c0,2.537,2.615,4.6,5.83,4.6s5.83-2.066,5.83-4.6v-.308A8.28,8.28,0,0,0,66.506,44.9l-5.929-3.234,1.469-2.694,5.93,3.234a11.35,11.35,0,0,1,5.916,9.967v.308C73.892,56.708,69.9,60.15,64.994,60.15Z" transform="translate(-21.833 -22.897)" fill="#fff"/>
            </g>
          </g>
        </g>
      </g>
    </g>
  </g>
</svg>
