<svg xmlns="http://www.w3.org/2000/svg" width="48.429" height="83.367" viewBox="0 0 48.429 83.367">
  <g id="Grupo_684" data-name="Grupo 684" transform="translate(-149.215 -1322.484)">
    <g id="shoe" transform="translate(158.443 1354.869)">
      <path id="Trazado_754" data-name="Trazado 754" d="M34.556,126.865l-.005-.01a3.216,3.216,0,0,0-1.692-1.423l-4.62-1.675a.684.684,0,0,0-.634.089l-.789.572a4.03,4.03,0,0,1-3.632.559,5.626,5.626,0,0,1-2.993-1.985l-.344-.673,2.551-3.784a.684.684,0,0,0-.087-.869l-2.746-2.708a.683.683,0,0,0-.691-.164L14.9,116.083c-.979-.133-6.523-.935-9.342-2.354l-2.2-1.106A1.651,1.651,0,0,0,1,113.774l-.87,4.35a6.632,6.632,0,0,0,.043,2.818l2.453,10.581a.684.684,0,0,0,.666.529H7.414a.684.684,0,0,0,.684-.684v-5.812a3.934,3.934,0,0,1,4.03.6l5.919,4.88a4.456,4.456,0,0,0,2.828,1.016h9.758a4.472,4.472,0,0,0,1.794-.373l.624-.271a3.212,3.212,0,0,0,1.506-4.542ZM18.9,116.224l2.046,2.018-2.171,3.221-.358-.116A4,4,0,0,1,16,119.183a.684.684,0,0,0-.036-.083,4.012,4.012,0,0,1-.317-1.565v-.257ZM6.73,130.684H3.836L1.505,120.633c-.029-.124-.051-.249-.071-.374h.429a4.872,4.872,0,0,1,4.867,4.867v5.559Zm25.775-.531-.624.271a3.112,3.112,0,0,1-1.248.26H20.875a3.086,3.086,0,0,1-1.958-.7L13,125.1a5.292,5.292,0,0,0-4.98-.971,6.244,6.244,0,0,0-6.154-5.239H1.4c.017-.167.041-.333.075-.5l.388-1.94,2.36,1.074c.216.106.632.254,1.194.45.225.079.438.153.549.2a.684.684,0,0,0,.5-1.274c-.133-.052-.347-.126-.594-.212-.356-.124-.895-.312-1.043-.387l-.024-.012-2.661-1.211.207-1.034a.284.284,0,0,1,.406-.2l2.2,1.106c2.745,1.382,7.632,2.18,9.337,2.427v.158a5.412,5.412,0,0,0,.1,1.061c-.653-.1-1.557-.238-2.559-.427a.684.684,0,1,0-.253,1.344c1.481.279,2.732.457,3.33.536a5.363,5.363,0,0,0,3.09,2.6l.579.189.4.781c.8,1.566,3.094,2.432,3.778,2.66a5.4,5.4,0,0,0,4.867-.749l.5-.359,4.28,1.551a1.846,1.846,0,0,1,.972.817l.005.01a1.844,1.844,0,0,1-.865,2.608Z" transform="translate(0 -112.445)" fill="#fff"/>
      <path id="Trazado_755" data-name="Trazado 755" d="M121.509,188.732a.684.684,0,1,0,.684.684A.684.684,0,0,0,121.509,188.732Z" transform="translate(-112.565 -183.517)" fill="#fff"/>
      <path id="Trazado_756" data-name="Trazado 756" d="M250.758,195.666a.684.684,0,1,0,.684.684A.684.684,0,0,0,250.758,195.666Z" transform="translate(-232.978 -189.977)" fill="#fff"/>
    </g>
    <g id="shoe-2" data-name="shoe" transform="translate(155.526 1325.789)" opacity="0.38">
      <path id="Trazado_754-2" data-name="Trazado 754" d="M30.137,125.021l0-.008a2.8,2.8,0,0,0-1.476-1.241l-4.03-1.461a.6.6,0,0,0-.553.078l-.688.5a3.515,3.515,0,0,1-3.168.488,4.907,4.907,0,0,1-2.61-1.731l-.3-.587,2.225-3.3a.6.6,0,0,0-.076-.758l-2.395-2.362a.6.6,0,0,0-.6-.143L13,115.618c-.854-.116-5.689-.815-8.148-2.053L2.932,112.6a1.44,1.44,0,0,0-2.059,1L.114,117.4a5.784,5.784,0,0,0,.037,2.458l2.14,9.228a.6.6,0,0,0,.581.462H6.466a.6.6,0,0,0,.6-.6v-5.069a3.431,3.431,0,0,1,3.515.523l5.162,4.256a3.886,3.886,0,0,0,2.467.886h8.51a3.9,3.9,0,0,0,1.564-.325l.544-.237a2.8,2.8,0,0,0,1.314-3.961Zm-13.654-9.28,1.784,1.76-1.893,2.809-.312-.1a3.487,3.487,0,0,1-2.106-1.887.6.6,0,0,0-.032-.072,3.5,3.5,0,0,1-.276-1.365v-.224ZM5.869,128.352H3.346l-2.033-8.766c-.025-.109-.045-.217-.062-.327h.374A4.249,4.249,0,0,1,5.869,123.5v4.848Zm22.479-.463-.544.237a2.714,2.714,0,0,1-1.089.226h-8.51a2.691,2.691,0,0,1-1.708-.613l-5.162-4.256a4.616,4.616,0,0,0-4.343-.847,5.446,5.446,0,0,0-5.368-4.569H1.218c.015-.145.036-.291.065-.436l.338-1.692,2.058.937c.188.093.551.221,1.041.392.2.068.382.133.479.171a.6.6,0,0,0,.432-1.111c-.116-.045-.3-.11-.518-.185-.311-.108-.78-.272-.91-.337l-.021-.01-2.321-1.056.18-.9a.247.247,0,0,1,.354-.172l1.917.965c2.394,1.205,6.657,1.9,8.143,2.116v.138a4.72,4.72,0,0,0,.091.926c-.57-.083-1.358-.207-2.232-.372a.6.6,0,0,0-.221,1.172c1.292.243,2.382.4,2.9.467a4.677,4.677,0,0,0,2.7,2.265l.505.164.348.681c.7,1.366,2.7,2.121,3.295,2.32a4.71,4.71,0,0,0,4.245-.654l.432-.313,3.732,1.353a1.61,1.61,0,0,1,.848.713l0,.008a1.608,1.608,0,0,1-.755,2.275Z" transform="translate(0 -112.445)" fill="#fff"/>
      <path id="Trazado_755-2" data-name="Trazado 755" d="M121.422,188.732a.6.6,0,1,0,.6.6A.6.6,0,0,0,121.422,188.732Z" transform="translate(-113.621 -184.183)" fill="#fff"/>
      <path id="Trazado_756-2" data-name="Trazado 756" d="M250.671,195.666a.6.6,0,1,0,.6.6A.6.6,0,0,0,250.671,195.666Z" transform="translate(-235.164 -190.704)" fill="#fff"/>
    </g>
    <g id="shoe-3" data-name="shoe" transform="translate(158.443 1386.016)" opacity="0.38">
      <path id="Trazado_754-3" data-name="Trazado 754" d="M34.556,126.865l-.005-.01a3.216,3.216,0,0,0-1.692-1.423l-4.62-1.675a.684.684,0,0,0-.634.089l-.789.572a4.03,4.03,0,0,1-3.632.559,5.626,5.626,0,0,1-2.993-1.985l-.344-.673,2.551-3.784a.684.684,0,0,0-.087-.869l-2.746-2.708a.683.683,0,0,0-.691-.164L14.9,116.083c-.979-.133-6.523-.935-9.342-2.354l-2.2-1.106A1.651,1.651,0,0,0,1,113.774l-.87,4.35a6.632,6.632,0,0,0,.043,2.818l2.453,10.581a.684.684,0,0,0,.666.529H7.414a.684.684,0,0,0,.684-.684v-5.812a3.934,3.934,0,0,1,4.03.6l5.919,4.88a4.456,4.456,0,0,0,2.828,1.016h9.758a4.472,4.472,0,0,0,1.794-.373l.624-.271a3.212,3.212,0,0,0,1.506-4.542ZM18.9,116.224l2.046,2.018-2.171,3.221-.358-.116A4,4,0,0,1,16,119.183a.684.684,0,0,0-.036-.083,4.012,4.012,0,0,1-.317-1.565v-.257ZM6.73,130.684H3.836L1.505,120.633c-.029-.124-.051-.249-.071-.374h.429a4.872,4.872,0,0,1,4.867,4.867v5.559Zm25.775-.531-.624.271a3.112,3.112,0,0,1-1.248.26H20.875a3.086,3.086,0,0,1-1.958-.7L13,125.1a5.292,5.292,0,0,0-4.98-.971,6.244,6.244,0,0,0-6.154-5.239H1.4c.017-.167.041-.333.075-.5l.388-1.94,2.36,1.074c.216.106.632.254,1.194.45.225.079.438.153.549.2a.684.684,0,0,0,.5-1.274c-.133-.052-.347-.126-.594-.212-.356-.124-.895-.312-1.043-.387l-.024-.012-2.661-1.211.207-1.034a.284.284,0,0,1,.406-.2l2.2,1.106c2.745,1.382,7.632,2.18,9.337,2.427v.158a5.412,5.412,0,0,0,.1,1.061c-.653-.1-1.557-.238-2.559-.427a.684.684,0,1,0-.253,1.344c1.481.279,2.732.457,3.33.536a5.363,5.363,0,0,0,3.09,2.6l.579.189.4.781c.8,1.566,3.094,2.432,3.778,2.66a5.4,5.4,0,0,0,4.867-.749l.5-.359,4.28,1.551a1.846,1.846,0,0,1,.972.817l.005.01a1.844,1.844,0,0,1-.865,2.608Z" transform="translate(0 -112.445)" fill="#fff"/>
      <path id="Trazado_755-3" data-name="Trazado 755" d="M121.509,188.732a.684.684,0,1,0,.684.684A.684.684,0,0,0,121.509,188.732Z" transform="translate(-112.565 -183.517)" fill="#fff"/>
      <path id="Trazado_756-3" data-name="Trazado 756" d="M250.758,195.666a.684.684,0,1,0,.684.684A.684.684,0,0,0,250.758,195.666Z" transform="translate(-232.978 -189.977)" fill="#fff"/>
    </g>
    <g id="smartphone-call" transform="translate(149.215 1322.484)">
      <path id="Trazado_757" data-name="Trazado 757" d="M50.132,0H12.965A5.647,5.647,0,0,0,7.334,5.631v72.1a5.649,5.649,0,0,0,5.631,5.633H50.132a5.645,5.645,0,0,0,5.631-5.631V5.631A5.647,5.647,0,0,0,50.132,0ZM25.6,4.059H37.494a.682.682,0,0,1,0,1.365H25.6a.682.682,0,0,1,0-1.365Zm5.945,76.493a2.817,2.817,0,1,1,2.815-2.818A2.815,2.815,0,0,1,31.549,80.552Zm20.3-7.605H11.252V8.93H51.845Z" transform="translate(-7.334)" fill="#fff"/>
    </g>
  </g>
</svg>
