<svg xmlns="http://www.w3.org/2000/svg" width="22.413" height="21.162" viewBox="0 0 22.413 21.162"><defs><style>.a{fill:#fff;}</style></defs><g transform="translate(-7.607 -33.297)"><g transform="translate(0 28.191)"><path class="a" d="M301.146,269.741a35.06,35.06,0,0,0-4.184-4.927c-.945-.945-1.937-1.853-2.868-2.626a.432.432,0,0,0-.681.182,3,3,0,0,1-.706,1.075,3.439,3.439,0,0,1-.817.62.432.432,0,0,0-.13.66c.75.9,1.627,1.85,2.534,2.758,3.128,3.128,6.167,5.312,7.391,5.312a.594.594,0,0,0,.437-.154C302.6,272.162,301.856,270.8,301.146,269.741Z" transform="translate(-272.255 -246.528)"/><path class="a" d="M234.388,209.668a5.838,5.838,0,0,0,.448,1.651,2.019,2.019,0,0,0,1.743,1.325h0a2.3,2.3,0,0,0,1.6-.792,2.35,2.35,0,0,0,.6-2.613,3.7,3.7,0,0,0-3.562-1.947,6.512,6.512,0,0,0-1.144.105.432.432,0,0,0-.251.709A2.856,2.856,0,0,1,234.388,209.668Z" transform="translate(-218.164 -195.376)"/><path class="a" d="M121.675,111.227a.432.432,0,0,0,.415.1c.273-.079.674-.193,1.04-.29a.434.434,0,0,0,.226-.146c.1-.125.219-.256.306-.352.431-.479,1.021-1.134.762-1.913a1.352,1.352,0,0,0-.771-.834,1.655,1.655,0,0,0-.651-.122,8.13,8.13,0,0,0-3.009,1.043,14.75,14.75,0,0,1-1.755.755,9.165,9.165,0,0,1,.478-.935,7.4,7.4,0,0,0,.677-1.435,1.575,1.575,0,0,0-.484-1.834l-.006,0a1.525,1.525,0,0,0-.931-.318c-.963,0-1.934.854-2.714,1.54-.319.281-.568.494-.742.619a.432.432,0,0,0-.171.44l.175.83a.432.432,0,0,0,.625.294,6.985,6.985,0,0,0,1.212-.934,10.65,10.65,0,0,1,1.1-.888,2.1,2.1,0,0,1,.337-.186,7.931,7.931,0,0,1-.528,1.064,6.953,6.953,0,0,0-.676,1.449,1.49,1.49,0,0,0,.633,1.815,1.393,1.393,0,0,0,.739.192,7.46,7.46,0,0,0,2.752-.965c.537-.258,1.093-.525,1.561-.7l.106-.038a3.153,3.153,0,0,0-.832,1.344A.431.431,0,0,0,121.675,111.227Z" transform="translate(-106.728 -99.835)"/></g></g></svg>