<svg xmlns="http://www.w3.org/2000/svg" width="21.942" height="19.2" viewBox="0 0 21.942 19.2"><defs><style>.a{fill:#d5787f;}</style></defs><g transform="translate(0 -28.191)"><g transform="translate(0 28.191)"><path class="a" d="M298.593,267.682a25.625,25.625,0,0,0-3.058-3.6c-.691-.691-1.416-1.355-2.1-1.92a.316.316,0,0,0-.5.133,2.194,2.194,0,0,1-.516.786,2.513,2.513,0,0,1-.6.453.316.316,0,0,0-.1.482c.548.655,1.189,1.352,1.853,2.016,2.286,2.286,4.508,3.883,5.4,3.883a.434.434,0,0,0,.319-.112C299.657,269.451,299.112,268.456,298.593,267.682Z" transform="translate(-277.476 -250.715)"/><path class="a" d="M234.206,209.029a4.267,4.267,0,0,0,.327,1.207,1.476,1.476,0,0,0,1.274.969h0a1.683,1.683,0,0,0,1.167-.579,1.718,1.718,0,0,0,.439-1.91,2.7,2.7,0,0,0-2.6-1.423,4.762,4.762,0,0,0-.836.077.316.316,0,0,0-.183.518A2.088,2.088,0,0,1,234.206,209.029Z" transform="translate(-222.348 -198.583)"/><path class="a" d="M20.045,28.191H.316A.316.316,0,0,0,0,28.507V41.9a.316.316,0,0,0,.316.316H13.845l-.646-.83c-1.308,0-1.7-1.261-1.812-1.261h-9.3V30.282H18.27v9.846h-.742l2.014,2.091h.5a.316.316,0,0,0,.316-.316v-13.4A.316.316,0,0,0,20.045,28.191Z" transform="translate(0 -28.191)"/><path class="a" d="M119.7,109.535a.316.316,0,0,0,.3.073c.2-.058.493-.141.76-.212a.317.317,0,0,0,.165-.107c.074-.091.16-.187.224-.257.315-.35.747-.829.557-1.4a.988.988,0,0,0-.564-.609,1.21,1.21,0,0,0-.476-.089,5.943,5.943,0,0,0-2.2.763,10.783,10.783,0,0,1-1.283.552,6.7,6.7,0,0,1,.349-.683,5.408,5.408,0,0,0,.5-1.049,1.152,1.152,0,0,0-.354-1.34l0,0a1.114,1.114,0,0,0-.681-.233,3.54,3.54,0,0,0-1.983,1.125c-.234.205-.415.361-.542.453a.316.316,0,0,0-.125.322l.128.607a.316.316,0,0,0,.457.215,5.1,5.1,0,0,0,.886-.683,7.784,7.784,0,0,1,.8-.649,1.538,1.538,0,0,1,.246-.136,5.8,5.8,0,0,1-.386.777,5.082,5.082,0,0,0-.494,1.059,1.089,1.089,0,0,0,.463,1.327,1.018,1.018,0,0,0,.54.14,5.453,5.453,0,0,0,2.011-.706c.393-.189.8-.384,1.141-.51l.078-.028a2.3,2.3,0,0,0-.608.982A.315.315,0,0,0,119.7,109.535Z" transform="translate(-108.775 -101.209)"/></g></g></svg>