<svg xmlns="http://www.w3.org/2000/svg" width="37.178" height="21.261" viewBox="0 0 37.178 21.261">
  <path id="Trazado_890" data-name="Trazado 890" d="M281.734,361.845l-.11-.185c-.763-1.295-.9-1.322-3.187-1.777l-.472-.094c-.724-.145-1.4-.252-2-.347-1.762-.28-3.035-.482-3.97-1.34-.256-.234-.479-.454-.676-.647-.625-.615-1.037-1.022-1.527-.912-.406.09-.606.5-.735.841-.074.2-.145.38-.213.554a3.726,3.726,0,0,0-.444,2.329,2.118,2.118,0,0,0,.463.758,4.719,4.719,0,0,1-1.373-.362c-.142-.071-.33-.158-.56-.265a33.788,33.788,0,0,1-7.694-4.783,84.715,84.715,0,0,1-8.189-7.428,21.2,21.2,0,0,0-1.515-1.785.987.987,0,0,0-.775-.3,2.291,2.291,0,0,0-1.507,1.061,14.8,14.8,0,0,0-1.658,3.229l0,.008c-.98,2.83-.743,5.386.527,6.093a73.166,73.166,0,0,1,3.626,10.16l.08.3h6.332v-6.314a48.627,48.627,0,0,1,4.108,3.386c.193.181.38.369.568.558,1.3,1.313,2.756,2.774,7.078,2.774a24.847,24.847,0,0,0,2.561-.144,52.432,52.432,0,0,0,11.046-2.151l.125-.044.075-.109A2.9,2.9,0,0,0,281.734,361.845Zm-12.126-3.612c.069-.176.142-.363.216-.563a1.3,1.3,0,0,1,.155-.316,5.012,5.012,0,0,1,.775.682c.2.2.433.426.7.667,1.116,1.023,2.562,1.253,4.392,1.544.618.1,1.257.2,1.964.341l.473.094.523.1a1.265,1.265,0,0,1,.111.095c-.763.453-4.992.483-8.72.24a3.061,3.061,0,0,1-1.007-1.085A3.377,3.377,0,0,1,269.607,358.233Zm-14.264,7.905h-4.894a75.321,75.321,0,0,0-3.27-9.271c.242.072.515.15.813.235a31.256,31.256,0,0,1,6.447,2.373c.266.158.571.356.9.584Zm25.767-1.8a54.583,54.583,0,0,1-10.722,2.063c-5.982.623-7.5-.91-8.978-2.393-.2-.2-.389-.391-.59-.579a43.517,43.517,0,0,0-5.966-4.654,31.783,31.783,0,0,0-6.638-2.455c-.756-.217-1.354-.388-1.631-.5-.72-.293-1.214-2.3-.227-5.153a14.184,14.184,0,0,1,1.534-3.005c.534-.679.835-.747.915-.752a.182.182,0,0,1,.153.069,20.907,20.907,0,0,1,1.449,1.71,86.312,86.312,0,0,0,8.314,7.556,34.55,34.55,0,0,0,7.869,4.893c.221.1.4.185.537.253a7.93,7.93,0,0,0,2.9.536c.12.008,2.307.149,4.519.157h.2c4.083,0,4.815-.46,4.992-.958a.686.686,0,0,0,.028-.113c.639.193.772.413,1.154,1.061l.111.187A2.1,2.1,0,0,1,281.11,364.339Z" transform="translate(-244.987 -346.095)" fill="#171924"/>
</svg>
