<svg id="Grupo_703" data-name="Grupo 703" xmlns="http://www.w3.org/2000/svg" width="45.552" height="44.313" viewBox="0 0 45.552 44.313">
  <g id="Grupo_556" data-name="Grupo 556" transform="translate(33.827 22.522)">
    <path id="Trazado_692" data-name="Trazado 692" d="M631.735,979.235H626.4a2.984,2.984,0,0,1-2.98-2.98v-5.019a2.984,2.984,0,0,1,2.98-2.98h5.333a2.984,2.984,0,0,1,2.98,2.98v5.019A2.984,2.984,0,0,1,631.735,979.235Zm-.031-8-5.3.031.031,4.988,5.27-.031Z" transform="translate(-623.422 -968.255)" fill="#012740"/>
  </g>
  <g id="Grupo_557" data-name="Grupo 557" transform="translate(0 8.124)">
    <path id="Trazado_693" data-name="Trazado 693" d="M627.89,990.1H597.109a7.394,7.394,0,0,1-7.386-7.385v-28.8h4.015v28.8a3.373,3.373,0,0,0,3.37,3.37H627.89a3.374,3.374,0,0,0,3.37-3.37V964.429a3.373,3.373,0,0,0-3.37-3.37H597.118v-4.015H627.89a7.394,7.394,0,0,1,7.385,7.385v18.286A7.394,7.394,0,0,1,627.89,990.1Z" transform="translate(-589.723 -953.911)" fill="#012740"/>
  </g>
  <g id="Grupo_558" data-name="Grupo 558" transform="translate(0.001)">
    <path id="Trazado_694" data-name="Trazado 694" d="M597.359,961.09a7.644,7.644,0,0,1-7.571-8.641,7.814,7.814,0,0,1,7.838-6.631H624.6a6.4,6.4,0,0,1,6.4,6.4v1.3a2.008,2.008,0,0,1-2.008,2.008h0a2.008,2.008,0,0,1-2.008-2.008v-1.3a2.385,2.385,0,0,0-2.385-2.385H597.464a3.69,3.69,0,0,0-3.648,2.86,3.627,3.627,0,0,0,3.542,4.382Z" transform="translate(-589.724 -945.818)" fill="#012740"/>
  </g>
</svg>
