<svg id="Grupo_702" data-name="Grupo 702" xmlns="http://www.w3.org/2000/svg" width="64.777" height="45.091" viewBox="0 0 64.777 45.091">
  <g id="Grupo_565" data-name="Grupo 565" transform="translate(46.112 20.334)">
    <rect id="Rectángulo_56" data-name="Rectángulo 56" width="16.768" height="3.797" transform="translate(0)" fill="#012740"/>
  </g>
  <g id="Grupo_567" data-name="Grupo 567" transform="translate(0)">
    <g id="Grupo_566" data-name="Grupo 566">
      <path id="Trazado_698" data-name="Trazado 698" d="M295.366,777.443h-6.579v3.8h4.823a2.139,2.139,0,0,1,1.629.753l6.132,7.209-.069,15.4H291.43a4.744,4.744,0,0,1-.27,3.8H301.3a3.868,3.868,0,0,0,3.869-3.869V788.174a1,1,0,0,0-.236-.643L297,778.195A2.142,2.142,0,0,0,295.366,777.443Z" transform="translate(-240.395 -767.924)" fill="#012740"/>
      <path id="Trazado_699" data-name="Trazado 699" d="M287.892,798.243l-18.516.04a4.8,4.8,0,0,1-.426,5.063l19.312-.043a4.812,4.812,0,0,1-.37-5.059Z" transform="translate(-245.87 -762.183)" fill="#012740"/>
      <path id="Trazado_700" data-name="Trazado 700" d="M297.253,803.339a4.875,4.875,0,0,1,2,.434V774.665a4.682,4.682,0,0,0-4.682-4.682H253.394a2.532,2.532,0,0,0,0,5.063h40.8v29.391A4.863,4.863,0,0,1,297.253,803.339Z" transform="translate(-250.862 -769.983)" fill="#012740"/>
      <path id="Trazado_701" data-name="Trazado 701" d="M264.42,802.045l-4.3.009V784.68h-5.063v17.586a4.9,4.9,0,0,0,.971,3.029,4.672,4.672,0,0,0,3.711,1.823h.01l5.124-.012a4.8,4.8,0,0,1-.452-5.062Z" transform="translate(-249.705 -765.927)" fill="#012740"/>
    </g>
  </g>
  <path id="Trazado_702" data-name="Trazado 702" d="M288.693,808.27a6.817,6.817,0,1,1,6.818-6.818A6.824,6.824,0,0,1,288.693,808.27Zm0-9.837a3.02,3.02,0,1,0,3.02,3.02A3.024,3.024,0,0,0,288.693,798.433Z" transform="translate(-242.302 -763.179)" fill="#012740"/>
  <path id="Trazado_703" data-name="Trazado 703" d="M267.318,808.27a6.817,6.817,0,1,1,6.816-6.818A6.825,6.825,0,0,1,267.318,808.27Zm0-9.837a3.02,3.02,0,1,0,3.02,3.02A3.024,3.024,0,0,0,267.318,798.433Z" transform="translate(-248.202 -763.179)" fill="#012740"/>
  <g id="Grupo_568" data-name="Grupo 568" transform="translate(1.383 8.914)">
    <path id="Trazado_704" data-name="Trazado 704" d="M269.649,781.431H254.178a2.232,2.232,0,0,1-2.232-2.232h0a2.231,2.231,0,0,1,2.232-2.23h15.471a2.231,2.231,0,0,1,2.232,2.23h0A2.232,2.232,0,0,1,269.649,781.431Z" transform="translate(-251.946 -776.969)" fill="#012740"/>
  </g>
  <g id="Grupo_569" data-name="Grupo 569" transform="translate(4.555 16.398)">
    <path id="Trazado_705" data-name="Trazado 705" d="M262.647,786.736l-6.347-.1a1.9,1.9,0,0,1-1.868-1.931h0a1.9,1.9,0,0,1,1.931-1.867l6.347.1a1.9,1.9,0,0,1,1.868,1.931h0A1.9,1.9,0,0,1,262.647,786.736Z" transform="translate(-254.432 -782.834)" fill="#012740"/>
  </g>
</svg>
