<svg xmlns="http://www.w3.org/2000/svg" width="64.284" height="74" viewBox="0 0 64.284 74">
  <g id="sad-girl" transform="translate(-27.675 0)">
    <path id="Trazado_894" data-name="Trazado 894" d="M274.96,226.782a1.4,1.4,0,0,0,1.9-2.066,5.123,5.123,0,0,0-7.237,0,1.4,1.4,0,0,0,.481,2.3c-.007.076-.012.152-.012.23a2.458,2.458,0,1,0,4.87-.463Z" transform="translate(-199.135 -184.036)" fill="#161824"/>
    <path id="Trazado_895" data-name="Trazado 895" d="M169.857,305.22a1.4,1.4,0,0,0,1.986,1.986,6.88,6.88,0,0,1,9.718,0,1.4,1.4,0,1,0,1.986-1.986A9.691,9.691,0,0,0,169.857,305.22Z" transform="translate(-116.884 -249.308)" fill="#161824"/>
    <path id="Trazado_896" data-name="Trazado 896" d="M91.6,69.844c-3.29-3.643-3.429-12.925-3.039-22.529a7.354,7.354,0,0,0,.5-10.227c.479-9.8.732-16.347-2.375-22.4A25.237,25.237,0,0,0,76.488,4.443,33.368,33.368,0,0,0,58.629.022a19.2,19.2,0,0,0-14.17,7.067,13.591,13.591,0,0,0-10.953,6.6c-.192.33-.378.669-.551,1.008-3.109,6.052-2.855,12.6-2.377,22.4a7.354,7.354,0,0,0,.5,10.224c.389,9.6.25,18.888-3.039,22.53a1.4,1.4,0,0,0,.546,2.255A29.632,29.632,0,0,0,39.108,74a33.469,33.469,0,0,0,8.69-1.174,33.831,33.831,0,0,0,7.923-3.217,25.127,25.127,0,0,0,8.192,0,33.831,33.831,0,0,0,7.923,3.217A33.026,33.026,0,0,0,80.481,74a29.914,29.914,0,0,0,10.57-1.9,1.4,1.4,0,0,0,.546-2.255Zm-6.677-25V37.871c0-.018,0-.037,0-.056V37.6a4.564,4.564,0,0,1-.043,8.7C84.9,45.817,84.92,45.332,84.92,44.842ZM35.453,15.976c.151-.295.313-.591.481-.878a10.8,10.8,0,0,1,9.232-5.224h.019a1.4,1.4,0,0,0,1.085-.55A16.422,16.422,0,0,1,58.729,2.829,30.567,30.567,0,0,1,75.086,6.878a22.484,22.484,0,0,1,9.1,9.1c2.487,4.841,2.561,10.108,2.153,19.157a7.313,7.313,0,0,0-1.417-.426V33.278a1.4,1.4,0,1,0-2.809,0v3.189C62.774,36.674,52.3,27.357,49.5,24.442a1.4,1.4,0,0,0-2.313.438c-2.041,4.964-5.606,7.561-11.22,8.173a1.4,1.4,0,0,0-1.252,1.4v.258a7.311,7.311,0,0,0-1.418.427C32.89,26.086,32.964,20.82,35.453,15.976ZM34.759,46.3a4.564,4.564,0,0,1-.043-8.7v7.241C34.716,45.332,34.732,45.817,34.759,46.3ZM31.329,70.065c2.5-4.274,2.939-11.38,2.62-21.076a7.307,7.307,0,0,0,1.154.255,25.187,25.187,0,0,0,16.447,19.3C47.487,70.292,39.8,72.608,31.329,70.065Zm28.489-2.93A22.319,22.319,0,0,1,37.525,44.842V35.674a14.854,14.854,0,0,0,11.393-7.883,41.3,41.3,0,0,0,9.9,6.6,51.921,51.921,0,0,0,23.288,4.89v5.565A22.319,22.319,0,0,1,59.818,67.135Zm12.844,3a33.233,33.233,0,0,1-4.581-1.593,25.186,25.186,0,0,0,16.452-19.3,7.311,7.311,0,0,0,1.153-.255c-.319,9.7.116,16.8,2.621,21.077A28.177,28.177,0,0,1,72.662,70.138Z" transform="translate(0 0)" fill="#161824"/>
    <path id="Trazado_897" data-name="Trazado 897" d="M106.858,224.716a1.4,1.4,0,0,0,1.9,2.066,2.457,2.457,0,1,0,4.87.464c0-.077,0-.154-.012-.23a1.4,1.4,0,0,0,.481-2.3A5.123,5.123,0,0,0,106.858,224.716Z" transform="translate(-64.944 -184.035)" fill="#161824"/>
  </g>
</svg>
