<svg id="Grupo_775" data-name="Grupo 775" xmlns="http://www.w3.org/2000/svg" width="30.255" height="27.273" viewBox="0 0 30.255 27.273">
  <g id="Grupo_590" data-name="Grupo 590">
    <g id="Grupo_589" data-name="Grupo 589">
      <path id="Trazado_732" data-name="Trazado 732" d="M51.247,70.177c-4.387,0-5.185-2.818-6.107-6.067-.169-.595-.343-1.21-.545-1.826-1.4-4.267-2.668-5.056-4.069-5.59-.565-.215-.792-.181-.884-.114-.172.126-.148.578-.122,1.058.011.2.023.413.023.632,0,1.235.348,11.086.352,11.186l.007.206H37.941l-.008-.191c0-.02-.078-2.017-.078-3.452,0-2.357-.137-10.341-1.9-14.122-.8-1.72-.367-3.741,1.256-5.846a14.99,14.99,0,0,1,2.681-2.656l.027-.02.032-.01c.861-.266,2.278,1.175,4.214,4.282a58.816,58.816,0,0,1,4.326,8.514c2.1,5.261,3.625,6.245,5.134,6.856a4.8,4.8,0,0,0,3.253-.077l.076-.032.077.032c.034.014,3.427,1.416,5.857,2.226,1.542.514,2.546,1.392,2.5,2.184-.027.447-.39.775-1,.9-.192.039-.452.1-.771.166A71.174,71.174,0,0,1,51.64,70.17C51.506,70.175,51.375,70.177,51.247,70.177Zm-11.4-14.046a2.411,2.411,0,0,1,.822.192c1.776.676,2.988,1.807,4.306,5.838.2.624.38,1.243.549,1.841.94,3.314,1.681,5.934,6.1,5.771a70.821,70.821,0,0,0,11.911-1.747c.321-.07.582-.127.776-.167.244-.05.658-.186.679-.534.03-.507-.725-1.283-2.228-1.783-2.243-.748-5.3-1.994-5.809-2.205a5.073,5.073,0,0,1-3.478.048c-1.592-.645-3.2-1.671-5.354-7.077a58.416,58.416,0,0,0-4.294-8.451c-1.992-3.2-3.225-4.222-3.731-4.12-.437.333-5.5,4.3-3.782,7.992,1.8,3.855,1.936,11.913,1.936,14.29,0,1.168.052,2.712.071,3.246h1.169c-.05-1.431-.345-9.853-.345-10.994,0-.208-.011-.412-.022-.61-.033-.616-.062-1.148.285-1.4A.716.716,0,0,1,39.846,56.131Z" transform="translate(-35.349 -43.119)" fill="#171924"/>
      <path id="Trazado_733" data-name="Trazado 733" d="M50.457,69.6h0c-4.548,0-5.405-3.022-6.312-6.221-.17-.6-.343-1.21-.543-1.819-1.366-4.177-2.593-4.942-3.942-5.456-.546-.208-.682-.141-.683-.14a2.516,2.516,0,0,0-.032.872c.011.205.023.418.023.643,0,1.134.292,9.479.351,11.14l.017.466h-2.39l-.015-.4c0-.018-.079-2.019-.079-3.46,0-2.346-.136-10.291-1.879-14.032-.837-1.8-.395-3.9,1.28-6.067a15.259,15.259,0,0,1,2.724-2.7l.056-.041.066-.021c.992-.306,2.41,1.083,4.46,4.373A59.048,59.048,0,0,1,47.9,55.294c2.065,5.182,3.551,6.143,5.016,6.736a4.559,4.559,0,0,0,3.091-.077l.157-.066.159.066c.034.014,3.428,1.416,5.843,2.221,1.661.554,2.7,1.5,2.645,2.4-.033.544-.468.953-1.166,1.1-.191.039-.45.1-.768.165A71.379,71.379,0,0,1,50.859,69.6c-.137,0-.271.007-.4.007Zm-11.4-14.475a2.614,2.614,0,0,1,.9.206c1.838.7,3.089,1.859,4.433,5.972.2.627.381,1.247.551,1.847.951,3.355,1.64,5.775,5.89,5.617A70.635,70.635,0,0,0,62.7,67.029c.322-.07.584-.128.778-.167.149-.03.5-.124.508-.337.021-.355-.61-1.077-2.081-1.567-2.145-.715-5.013-1.878-5.746-2.178a5.217,5.217,0,0,1-3.554.017c-1.637-.663-3.287-1.712-5.473-7.2a58.185,58.185,0,0,0-4.277-8.417c-1.989-3.192-3.108-4.021-3.465-4.027-.562.438-5.274,4.256-3.671,7.694,1.815,3.9,1.956,11.992,1.956,14.381,0,1.026.04,2.344.064,3.031h.739c-.072-2.05-.337-9.69-.337-10.78,0-.2-.012-.414-.022-.6-.035-.65-.068-1.264.372-1.585A.933.933,0,0,1,39.056,55.129Z" transform="translate(-34.559 -42.331)" fill="#171924"/>
    </g>
  </g>
  <g id="Grupo_592" data-name="Grupo 592" transform="translate(0.38 8.231)">
    <g id="Grupo_591" data-name="Grupo 591" transform="translate(0)">
      <path id="Trazado_734" data-name="Trazado 734" d="M45.355,90.337c-1.3-3.64-7.577-7.858-7.64-7.9l.22-.33a37.769,37.769,0,0,1,3.378,2.611c2.365,2.055,3.851,3.9,4.416,5.487Z" transform="translate(-37.418 -81.809)" fill="#171924"/>
      <path id="Trazado_735" data-name="Trazado 735" d="M44.136,89.523l-.072-.2c-1.274-3.57-7.494-7.752-7.557-7.794l-.178-.119.458-.687.178.118a37.864,37.864,0,0,1,3.4,2.628c2.393,2.08,3.9,3.956,4.478,5.576l.072.2Z" transform="translate(-36.329 -80.722)" fill="#171924"/>
    </g>
  </g>
</svg>
