<svg id="yutnne.tif" xmlns="http://www.w3.org/2000/svg" width="30.799" height="23" viewBox="0 0 30.799 23">
  <g id="Grupo_588" data-name="Grupo 588">
    <path id="Trazado_731" data-name="Trazado 731" d="M324.67,518l.348-.271c-.031-.307-.083-.642-.1-.979a10.166,10.166,0,0,1,.675-3.667c.29-.849.5-1.725.722-2.6a3.666,3.666,0,0,0,.067-.866c.007-1.163,0-2.327,0-3.49,0-.27-.031-.553.318-.668.044-.015.059-.152.068-.235.046-.407.075-.816.132-1.222a1.584,1.584,0,0,1,.158-.451.761.761,0,0,1,.7-.484.691.691,0,0,1,.74.457,11.169,11.169,0,0,1,.29,1.459,3.955,3.955,0,0,1,.005.6c.6.046,1.173.095,1.749.134,1.05.071,2.1.131,3.15.209a.271.271,0,0,0,.332-.195,1.315,1.315,0,0,1,1.118-.8c.4-.049.8-.067,1.194-.12a3.178,3.178,0,0,0,1.566-.634c.339-.264.562-.216.765.178q1.308,2.534,2.611,5.072c1.137,2.206,2.28,4.408,3.406,6.62a2.579,2.579,0,0,0,.654.8,11.032,11.032,0,0,0,5.8,2.472,19.577,19.577,0,0,1,2.014.311,2.9,2.9,0,0,1,2.285,2.29.625.625,0,0,1-.179.65,7.941,7.941,0,0,1-2.48,1.554,24.961,24.961,0,0,1-5.79,1.621,18.794,18.794,0,0,1-3.555.311,4.961,4.961,0,0,1-3.53-1.4,15.122,15.122,0,0,0-4.416-2.974c-.664-.291-1.366-.494-2.112-.759v.415q0,1.971,0,3.942c0,.514-.123.636-.64.636h-6.258c-.45,0-.551-.073-.624-.507-.319-1.9-.629-3.809-.947-5.713-.072-.432-.161-.86-.242-1.29Zm13.456-13a5.463,5.463,0,0,1-2.623.679c-.667.024-.828.23-.828.905v11.552c0,.722,0,1.444,0,2.166a.264.264,0,0,0,.21.3c.294.094.583.21.868.331a16.2,16.2,0,0,1,4.122,2.663,1.058,1.058,0,0,0,.532.222c.417.05.84.061,1.261.073a26.057,26.057,0,0,0,5.676-.487,18.45,18.45,0,0,0,4.895-1.568c.566-.286,1.1-.638,1.647-.96l-.015-.12a4.893,4.893,0,0,0-.869-.352c-.645-.131-1.3-.217-1.954-.3a11.593,11.593,0,0,1-6.463-2.913,2.222,2.222,0,0,1-.475-.6q-1.809-3.474-3.6-6.96C339.718,508.09,338.926,506.551,338.126,505Zm-10.95,1.265v.358c0,1.033,0,2.065,0,3.1a6.337,6.337,0,0,1-.293,2.1c-.076.221-.03.311.182.4,1.581.676,3.156,1.364,4.733,2.048l2.079.9v-8.451Zm-.65,6.568c-.171.5-.352.965-.489,1.443a6.865,6.865,0,0,0-.136,3.732.634.634,0,0,0,.29.367,13.349,13.349,0,0,0,1.483.645,25.593,25.593,0,0,0,4.618,1.026c.521.079,1.042.163,1.564.245a.453.453,0,0,0,.031-.1c0-1.334.007-2.668,0-4,0-.082-.113-.2-.2-.237-.71-.322-1.427-.631-2.142-.941Zm6.053,12.3v-4.244a20.362,20.362,0,0,1-7-1.935l1.018,6.179Zm21.836-3.708c-.057.036-.112.074-.171.107a25.265,25.265,0,0,1-2.4,1.344,24.636,24.636,0,0,1-8.761,1.8c-.609.027-1.22,0-1.83,0l-.016.082c.226.1.446.209.678.286a7.168,7.168,0,0,0,2.915.2,27.624,27.624,0,0,0,5.494-1.061,12.763,12.763,0,0,0,3.9-1.736C354.756,522.069,354.757,522.023,354.416,521.423Zm-26.387-15.877a4.554,4.554,0,0,0-.2-1.656l-.124,0-.187,1.61Z" transform="translate(-324.67 -503.066)" fill="#171924"/>
  </g>
</svg>
