<svg xmlns="http://www.w3.org/2000/svg" width="37.787" height="13" viewBox="0 0 37.787 13">
  <g id="Grupo_768" data-name="Grupo 768" transform="translate(-51.613 -462.095)">
    <g id="Grupo_698" data-name="Grupo 698" transform="translate(51.613 462.095)">
      <path id="Trazado_832" data-name="Trazado 832" d="M78.637,475.02c-4.169,0-7.446-1.209-10.9-2.485q-.715-.264-1.452-.532c-4.263-1.54-13.068-1.474-13.157-1.475l-.188,0-.079-.17c-.085-.184-2.077-4.545-.841-8l.059-.165.174-.025a18.1,18.1,0,0,1,10.368,2.263c7.3,3.954,10.879,5.005,17.42,5.115a51.824,51.824,0,0,0,7.076-.107c.122-.015.219-.028.337-.033l.072,0,.065.03a3.287,3.287,0,0,1,1.8,2.666l.012.189-.167.088A25.962,25.962,0,0,1,79.481,475Q79.053,475.02,78.637,475.02Zm-25.214-5.076c1.622,0,9.1.08,13.057,1.51q.74.268,1.456.534c3.789,1.4,7.062,2.607,11.523,2.433a25.27,25.27,0,0,0,9.328-2.469A2.734,2.734,0,0,0,87.4,470c-.069.006-.136.014-.216.024a52.38,52.38,0,0,1-7.159.112c-6.654-.111-10.291-1.177-17.688-5.185a18.137,18.137,0,0,0-9.833-2.218c-.912,2.837.463,6.4.8,7.213Z" transform="translate(-51.613 -462.095)" fill="#11141b"/>
    </g>
    <g id="Grupo_699" data-name="Grupo 699" transform="translate(73.267 466.414)">
      <path id="Trazado_833" data-name="Trazado 833" d="M177.146,487.771a18.18,18.18,0,0,0-4.167-.416,40.493,40.493,0,0,1-4.4-.341,19.267,19.267,0,0,1-5.132-2.078.888.888,0,0,0,.318.739c.559.435,1.841,1.538,1.9,1.584l-.254.294c-.013-.011-1.328-1.142-1.88-1.572a1.4,1.4,0,0,1-.423-1.41l.066-.247.22.13a20.236,20.236,0,0,0,5.258,2.177,40.321,40.321,0,0,0,4.347.336c2.44.112,3.957.195,4.372.485Z" transform="translate(-163.06 -484.324)" fill="#11141b"/>
    </g>
    <g id="Grupo_700" data-name="Grupo 700" transform="translate(52.861 470.14)">
      <path id="Trazado_834" data-name="Trazado 834" d="M66.192,508.454H59.311l-1.273-4.806.564-.149,1.159,4.372h5.85V503.9h.583Z" transform="translate(-58.038 -503.499)" fill="#11141b"/>
    </g>
  </g>
</svg>
