<svg xmlns="http://www.w3.org/2000/svg" width="37.601" height="17.14" viewBox="0 0 37.601 17.14">
  <g id="Grupo_769" data-name="Grupo 769" transform="translate(-762.575 -893.678)">
    <g id="Grupo_594" data-name="Grupo 594" transform="translate(762.575 895.463)">
      <path id="Trazado_738" data-name="Trazado 738" d="M73.005,284.416c-7.626,0-11.612-3.871-12.651-5.058-.244-.277-.509-.584-.786-.9-1.066-1.232-3-3.467-3.663-3.754-.228,1.16-.782,6.586-1.052,9.39l-.031.325H50.68l-3.928-15.355.5.04a50.7,50.7,0,0,1,6.318.887h0c2.3.574,5.379,3.6,8.085,6.386,2.164,2.229,5.435,5.6,11.849,5.6a26.294,26.294,0,0,0,10.141-1.816l.445-.207.261,2.013-.226.115A26.444,26.444,0,0,1,73.005,284.416ZM55.8,273.951c.7,0,1.8,1.129,4.313,4.032.275.318.539.623.782.9.99,1.129,4.788,4.813,12.111,4.813a26.689,26.689,0,0,0,10.567-2.153L83.5,281a27.957,27.957,0,0,1-10,1.7c-6.718,0-10.116-3.5-12.365-5.817-1.9-1.963-5.448-5.617-7.742-6.189h0a46.434,46.434,0,0,0-5.7-.824L51.238,283.7h2.93c.154-1.583.814-8.255,1.059-9.265a.592.592,0,0,1,.431-.464A.6.6,0,0,1,55.8,273.951Z" transform="translate(-46.752 -269.061)" fill="#171924"/>
    </g>
    <g id="Grupo_595" data-name="Grupo 595" transform="translate(772.113 893.678)">
      <path id="Trazado_739" data-name="Trazado 739" d="M103.407,277.415c-5.875,0-8.932-2.649-11.8-5.6a62.133,62.133,0,0,0-4.526-4.326l-.559-.466.71-.161a23.585,23.585,0,0,0,8.494-3.893,10.014,10.014,0,0,1,1-.639c1.238-.618,1.749-.079,1.878.1.206.239,2.874,3.335,3.933,4.68,1,1.272,3.084,3.92,6.313,3.977a5.534,5.534,0,0,1,5.531,3.837l.087.3-.659.3-.148-.328.148.328A27.174,27.174,0,0,1,103.407,277.415ZM88.086,267.4c1.35,1.178,2.735,2.572,4.043,3.918,2.752,2.836,5.685,5.381,11.279,5.381a26.388,26.388,0,0,0,10.1-1.824l.083-.038a4.822,4.822,0,0,0-4.757-3.026c-3.57-.063-5.8-2.892-6.865-4.251-1.086-1.38-3.9-4.637-3.925-4.67L98,262.821c-.041-.051-.317-.164-.953.154a10.161,10.161,0,0,0-.91.588A24.455,24.455,0,0,1,88.086,267.4Z" transform="translate(-86.527 -262.042)" fill="#171924"/>
    </g>
  </g>
</svg>
