<svg xmlns="http://www.w3.org/2000/svg" width="39.757" height="53.173" viewBox="0 0 39.757 53.173">
  <g id="Grupo_778" data-name="Grupo 778" transform="translate(-674.5 -1854.215)">
    <g id="zeJHfl.tif" transform="translate(566.975 1806.715)">
      <g id="Grupo_704" data-name="Grupo 704" transform="translate(108.025 48)">
        <path id="Trazado_862" data-name="Trazado 862" d="M132.784,48a8.939,8.939,0,0,1,1.024.4,3.24,3.24,0,0,1,1.929,2.94,1.785,1.785,0,0,1-1.722,1.845,6.948,6.948,0,0,0-5.1,4.2.266.266,0,0,0,.012.1c3.413,1.59,4.613,3.032,5.211,6.314.561.072,1.144.144,1.727.223a5.416,5.416,0,0,1,3.76,2.541,1.031,1.031,0,0,0,.859.516c1.031.061,2.067.128,3.087.285a3.1,3.1,0,0,1,2.757,2.6,4.221,4.221,0,0,1-.773,2.889,1.672,1.672,0,0,0-.089,1.881,5.191,5.191,0,0,1,.49,1.433,2.579,2.579,0,0,1-.152,1.322,1.233,1.233,0,0,0-.018,1.048c.305.77.615,1.541.853,2.333a2.144,2.144,0,0,1-.571,2.382,2.4,2.4,0,0,1-2.6.532c-.7-.284-1.329-.733-2-1.084-.324-.169-.679-.28-1.019-.418l-.094.145c.1.367.207.732.29,1.1a2.483,2.483,0,0,1-1.777,3.167c-.695.226-.75.322-.425.969a5.261,5.261,0,0,1,.254,4.7,6.415,6.415,0,0,0-.275,2.91,16.424,16.424,0,0,1-.038,2.535,2.549,2.549,0,0,1-1.931,2.25,1.2,1.2,0,0,0-.2.111h-1.121a2.869,2.869,0,0,1-1.673-2.146c-.194-.77-.383-1.545-.644-2.294a1.247,1.247,0,0,0-1.668-.908c-.714.143-1.428.289-2.147.4a3.16,3.16,0,0,1-3.641-1.915.579.579,0,0,0-.319-.271,2.18,2.18,0,0,1-1.34-1.553.988.988,0,0,0-.426-.544,2.323,2.323,0,0,1-1.028-1.394,1.167,1.167,0,0,0-.416-.582,16.041,16.041,0,0,0-4.306-1.9.7.7,0,0,0-.54.129,1.9,1.9,0,0,1-2.281.186,20.8,20.8,0,0,1-2.116-1.576,4.312,4.312,0,0,0-2.006-1.016,3.759,3.759,0,0,1-2.55-3.053.761.761,0,0,1,.056-.4,3.131,3.131,0,0,0,.461-1.747,1.409,1.409,0,0,1,.988-1.2,4.05,4.05,0,0,1,1.323-.314,1.476,1.476,0,0,0,1.349-.837c.184-.341.32-.708.476-1.063a1.019,1.019,0,0,1,1.971.483,4.247,4.247,0,0,1-2.93,3.386,9.181,9.181,0,0,1-.934.115c-.173.613-.324,1.112-.45,1.618a.518.518,0,0,0,.049.39,2.2,2.2,0,0,0,1.067.7,10.076,10.076,0,0,1,2.138,1.115c.7.466,1.323,1.048,2.008,1.6a1.741,1.741,0,0,1,2.087-.615,18.53,18.53,0,0,1,5.264,2.231,2.35,2.35,0,0,1,1.286,1.677c.015.106.219.225.357.267a1.25,1.25,0,0,1,1.058,1.352.626.626,0,0,0,.574.725,1.348,1.348,0,0,1,1.05,1.12c.136.637.324.843.964.8a19.356,19.356,0,0,0,2.457-.346,3.364,3.364,0,0,1,4.111,2.283c.262.748.415,1.534.625,2.3.066.241.154.476.229.706a.655.655,0,0,0,.71-.686c.019-.473.05-.949.024-1.42a10.592,10.592,0,0,1,.575-5,2.486,2.486,0,0,0-.163-1.927c-.1-.269-.239-.524-.356-.787a2.44,2.44,0,0,1,1.477-3.444c.837-.3.857-.367.611-1.242a5.138,5.138,0,0,1-.3-1.53,2.121,2.121,0,0,1,2.117-1.763,3.509,3.509,0,0,1,2.073.57c.406.247.794.523,1.207.756a1.744,1.744,0,0,0,.661.222c.312.031.5-.118.365-.467-.239-.633-.53-1.251-.71-1.9a19.258,19.258,0,0,1-.369-2.021.4.4,0,0,1,.066-.291c.451-.533.182-1.024-.042-1.542a11.208,11.208,0,0,1-.439-1.295,2.49,2.49,0,0,1,.312-2,9.819,9.819,0,0,0,.747-1.6.853.853,0,0,0-.6-1.2,6.149,6.149,0,0,0-1.242-.23c-.958-.112-1.923-.179-2.879-.308a1.768,1.768,0,0,1-1.337-.922,4.085,4.085,0,0,0-3.782-2.139c-.1,0-.2-.01-.345-.018-.046.139-.1.277-.138.418a15.143,15.143,0,0,1-5.1,7.612c-1.323,1.085-2.254,1.1-3.567.017a14.528,14.528,0,0,1-5.2-8.054,7.2,7.2,0,0,1,6.377-8.616c.29-.024.425-.077.51-.4a9.088,9.088,0,0,1,6.7-5.766,1.655,1.655,0,0,0-1.939-1.058,4.441,4.441,0,0,0-2.3,1.125,12,12,0,0,1-4.937,2.5c-.646.2-1.29.411-1.946.578a.894.894,0,0,0-.706.7,8.63,8.63,0,0,1-1.644,3.184,2.418,2.418,0,0,1-1.387.97c-.141.029-.268.23-.359.379a4,4,0,0,1-2.548,2.1,2.621,2.621,0,0,0-2.231,2.6,3.412,3.412,0,0,0,.288,1.2c.187.541.473,1.051.624,1.6a1.012,1.012,0,0,1-.734,1.349,1.079,1.079,0,0,1-1.272-.888,2.8,2.8,0,0,0-.315-.85c-1.284-1.8-.612-4.135.512-5.527a3.833,3.833,0,0,1,2.608-1.518,1.794,1.794,0,0,0,.935-.624,5.718,5.718,0,0,0,.638-1.035A1.574,1.574,0,0,1,118.205,57a.561.561,0,0,0,.394-.247,12.338,12.338,0,0,0,1.118-2.205,3.186,3.186,0,0,1,2.366-2.329c1.318-.369,2.613-.826,3.906-1.278a3.385,3.385,0,0,0,1.115-.594A9.96,9.96,0,0,1,131.256,48Zm-.562,16.554-.115-.049c-.044-.352-.071-.707-.136-1.055a5.069,5.069,0,1,0-9.951,1.938,12.979,12.979,0,0,0,4.444,6.946.726.726,0,0,0,1.1-.013,13.614,13.614,0,0,0,3.79-5.036A25.959,25.959,0,0,0,132.223,64.554Z" transform="translate(-108.025 -48)" stroke="#000" stroke-width="1"/>
        <path id="Trazado_863" data-name="Trazado 863" d="M154.226,275.044a1.05,1.05,0,0,1-1.039-1.031,1.029,1.029,0,0,1,1.057-1,1,1,0,0,1,1,1A1.015,1.015,0,0,1,154.226,275.044Z" transform="translate(-148.584 -250.08)" stroke="#000" stroke-width="1"/>
        <path id="Trazado_864" data-name="Trazado 864" d="M270.228,182.462a3.081,3.081,0,0,1-3.065,3.089,3.077,3.077,0,0,1-.016-6.153A3.061,3.061,0,0,1,270.228,182.462Zm-3.079-.978a.984.984,0,1,0,.038,1.967.984.984,0,1,0-.038-1.967Z" transform="translate(-248.191 -166.008)" stroke="#000" stroke-width="1"/>
      </g>
    </g>
  </g>
</svg>
