<svg xmlns="http://www.w3.org/2000/svg" width="24.748" height="24.748" viewBox="0 0 24.748 24.748"><defs><style>.a{fill:#fff;fill-rule:evenodd;}</style></defs><path class="a" d="M512.374,55c3.361,0,3.782.014,5.1.074a9.081,9.081,0,0,1,3,.575,6.327,6.327,0,0,1,3.619,3.619,9.082,9.082,0,0,1,.575,3c.06,1.32.074,1.741.074,5.1s-.014,3.782-.074,5.1a9.082,9.082,0,0,1-.575,3A6.327,6.327,0,0,1,520.48,79.1a9.084,9.084,0,0,1-3,.575c-1.32.06-1.741.074-5.1.074s-3.782-.014-5.1-.074a9.084,9.084,0,0,1-3-.575,6.327,6.327,0,0,1-3.619-3.619,9.079,9.079,0,0,1-.575-3c-.06-1.32-.075-1.741-.075-5.1s.014-3.782.075-5.1a9.079,9.079,0,0,1,.575-3,6.327,6.327,0,0,1,3.619-3.619,9.081,9.081,0,0,1,3-.575C508.592,55.014,509.013,55,512.374,55Zm0,2.23c-3.3,0-3.7.013-5,.072a6.845,6.845,0,0,0-2.3.426,4.1,4.1,0,0,0-2.348,2.348,6.849,6.849,0,0,0-.426,2.3c-.06,1.3-.072,1.7-.072,5s.013,3.7.072,5a6.849,6.849,0,0,0,.426,2.3,4.1,4.1,0,0,0,2.348,2.348,6.846,6.846,0,0,0,2.3.426c1.3.06,1.7.072,5,.072s3.7-.013,5-.072a6.847,6.847,0,0,0,2.3-.426,4.1,4.1,0,0,0,2.348-2.348,6.845,6.845,0,0,0,.426-2.3c.06-1.3.072-1.7.072-5s-.013-3.7-.072-5a6.845,6.845,0,0,0-.426-2.3,4.1,4.1,0,0,0-2.348-2.348,6.846,6.846,0,0,0-2.3-.426C516.069,57.242,515.678,57.23,512.374,57.23Zm0,3.79a6.354,6.354,0,1,1-6.354,6.354A6.354,6.354,0,0,1,512.374,61.02Zm0,10.479a4.125,4.125,0,1,0-4.125-4.125A4.125,4.125,0,0,0,512.374,71.5Zm8.09-10.73a1.485,1.485,0,1,1-1.485-1.485A1.485,1.485,0,0,1,520.464,60.769Z" transform="translate(-500 -55)"/></svg>