<svg xmlns="http://www.w3.org/2000/svg" width="54.077" height="54.033" viewBox="0 0 54.077 54.033"><defs><style>.a{fill:#8d16b1;}</style></defs><g transform="translate(-16 -17.554)"><path class="a" d="M265.807,112h-.9a.9.9,0,0,0,0,1.807h.9a.9.9,0,0,0,0-1.807Z" transform="translate(-219.992 -83.779)"/><path class="a" d="M61.6,40.07h0l-.015-.008h0a.9.9,0,0,0-.226-.079l-3.791-.758V36.431L59.047,28a.9.9,0,0,0,.285-.438,7.031,7.031,0,0,0-5.312-8.812l-4.954-1.043A7.008,7.008,0,0,0,40.8,22.885l-.181.725-6.433-.8L33.958,24.6l7.213.9.37.058L37.8,32.3a.9.9,0,0,0,.79,1.342H41.3v6.324a.9.9,0,0,0,.9.9h4.517v1.323L44.5,43.674l-2.455.921A11.808,11.808,0,0,0,36.445,49H16.9a.9.9,0,0,0-.9.9V66.167a.9.9,0,0,0,.291.663A2.809,2.809,0,0,0,18.5,70.867l6.435.715a.9.9,0,0,0,.1.006H64.788a.9.9,0,0,0,.866-.647l3.784-12.772A15.346,15.346,0,0,0,61.6,40.07ZM55.74,29.875a.9.9,0,0,0-.389-.6l-2.71-1.807a.9.9,0,0,0-1.14.113L50.332,28.75v-1.8l6.875,1.085L56,34.9l-2.532-1.519,2.109-2.813a.9.9,0,0,0,.168-.695Zm1.17,11.063,2.185.437-6.751,5.4-.816-1.224ZM42.549,23.324a5.207,5.207,0,0,1,6.144-3.845l4.954,1.043a5.227,5.227,0,0,1,4.108,5.769L42.413,23.868ZM43.1,39.062V32.738a.9.9,0,0,0-.9-.9H40.122l3.319-5.975,5.084.8v4.268a.9.9,0,0,0,1.542.639l2.187-2.187,1.3.866L51.416,33.1a.9.9,0,0,0,.258,1.317l4.079,2.447V39.55l-5.374,4.606L48.525,42.3V40.34l2.446-2.446-1.278-1.278-2.446,2.446Zm4.4,4.777,1.45,1.45-1.914,1.436-.966-1.932ZM41.3,64.995l-.479.126-1.935-3.212a2.417,2.417,0,0,0-2.059-1.163h-.055a2.372,2.372,0,0,0-2.328,2.83l.013.066a1.36,1.36,0,0,1-1.334,1.622h-.858V50.808H41.3ZM25.035,50.808v1.807H23.228V50.808Zm-7.228,0h3.614v2.71a.9.9,0,0,0,.9.9h3.614a.9.9,0,0,0,.9-.9v-2.71h3.614V65.263H17.807Zm0,17.266a1,1,0,0,1,1-1h5.507a2.808,2.808,0,0,0,.358,2.665L18.7,69.071A1,1,0,0,1,17.807,68.074Zm9.024,1a1,1,0,0,1,.111-2H33.12a3.167,3.167,0,0,0,3.107-3.777l-.013-.066a.565.565,0,0,1,.555-.674h.055a.6.6,0,0,1,.512.289l2.155,3.576v3.363H33.216ZM67.706,57.655,64.113,69.781H41.3V66.863l16.493-4.34a.9.9,0,0,0,.647-.655l2.71-10.842-1.753-.438L56.813,60.912,43.1,64.519V49.9a.9.9,0,0,0-.9-.9H38.732a9.988,9.988,0,0,1,3.945-2.714l1.791-.671L45.91,48.5a.9.9,0,0,0,1.35.319l1.911-1.434-.64,5.116,1.793.224.6-4.818.46.69a.9.9,0,0,0,1.316.2l8.573-6.858a13.54,13.54,0,0,1,6.429,15.711Z" transform="translate(0 0)"/><path class="a" d="M48.9,367.228h7.228a.9.9,0,0,0,.9-.9V360.9a.9.9,0,0,0-.9-.9H48.9a.9.9,0,0,0-.9.9v5.421a.9.9,0,0,0,.9.9Zm.9-5.421h5.421v3.614H49.807Z" transform="translate(-28.386 -303.772)"/></g></svg>