<svg xmlns="http://www.w3.org/2000/svg" width="71.602" height="68.546" viewBox="0 0 71.602 68.546"><defs><style>.a,.b{fill:#e17f82;}.b{stroke:#8d16b1;stroke-width:0.5px;}</style></defs><g transform="translate(-995.473 -276.521)"><g transform="translate(995.473 276.521)"><g transform="translate(0 0)"><g transform="translate(15.897 17.597) rotate(-43)"><path class="a" d="M.52,5.5,0,5c.245-.251.5-.5.769-.737l.485.541C1,5.029.753,5.265.52,5.5ZM2.071,4.116l-.449-.571c.288-.226.589-.448.9-.659l.412.6C2.636,3.687,2.347,3.9,2.071,4.116Zm18.737-.23c-.286-.211-.581-.414-.878-.6l.392-.612c.31.2.619.411.917.631ZM3.828,2.9l-.377-.621c.313-.191.638-.375.965-.55l.342.641C4.442,2.541,4.13,2.72,3.828,2.9Zm15.187-.166c-.31-.171-.629-.334-.949-.484l.308-.658c.334.157.668.327.991.506ZM5.715,1.9l-.306-.659c.339-.157.682-.305,1.02-.44l.268.675C6.372,1.6,6.042,1.744,5.715,1.9Zm11.372-.064c-.33-.129-.668-.248-1-.355L16.3.785c.352.111.7.236,1.049.371ZM15.058,1.19c-.342-.084-.693-.158-1.042-.219l.126-.715c.365.064.731.142,1.089.229ZM7.7,1.113,7.481.42C7.625.375,7.7.353,7.7.353L7.725.348c.289-.06.584-.113.878-.158l.109.718c-.276.042-.555.092-.828.148C7.861,1.064,7.8,1.082,7.7,1.113ZM12.962.82C12.611.782,12.253.754,11.9.739l.032-.726c.369.016.742.045,1.109.085ZM9.77.783,9.708.059c.366-.031.74-.051,1.111-.059l.015.726C10.479.734,10.121.753,9.77.783Z"/></g><g transform="translate(42.797 11.22) rotate(-43)"><path class="a" d="M.574,13.658,0,13.213c.216-.279.426-.569.625-.863l.6.406C1.019,13.063.8,13.367.574,13.658Zm1.244-1.844-.627-.366c.179-.306.349-.621.506-.937l.65.324C2.183,11.164,2.005,11.494,1.818,11.814ZM2.81,9.823l-.67-.281c.136-.326.264-.661.378-1l.687.235C3.086,9.131,2.953,9.482,2.81,9.823Zm.721-2.1-.7-.19c.092-.34.174-.689.244-1.036l.712.143C3.714,7,3.628,7.363,3.532,7.718Zm.438-2.181-.72-.1c.046-.35.082-.706.106-1.06l.724.049C4.055,4.8,4.018,5.172,3.969,5.538Zm.149-2.22H3.392V3.279c0-.342-.01-.687-.032-1.028l.725-.045c.022.355.033.716.033,1.073ZM3.259,1.191C3.214.84,3.156.486,3.089.14L3.8,0c.071.362.131.732.178,1.1Z"/></g><g transform="translate(30.791 8.126) rotate(-43)"><path class="a" d="M5.944,11.915a5.975,5.975,0,1,1,1.139-.109A6.015,6.015,0,0,1,5.944,11.915ZM5.959.726a5.231,5.231,0,1,0,5.134,4.241A5.223,5.223,0,0,0,5.959.726Z"/></g><g transform="translate(54.413 47.652)"><path class="a" d="M1295.138,537.3l0-.726,16.462-.052-.048-15.427-7.182.023,0-.726,7.545-.024a.364.364,0,0,1,.364.362l.051,16.153a.363.363,0,0,1-.362.364Z" transform="translate(-1295.136 -520.369)"/><g transform="translate(12.205)"><g transform="translate(0 11.735)"><path class="a" d="M1363.193,590.148c-.617,0-.626-.008-.724-.1a.364.364,0,0,1-.11-.243,4.577,4.577,0,0,1,4.572-4.808h.03a.366.366,0,0,1,.363.364l.014,4.417a.363.363,0,0,1-.362.364l-2.124.006-1.462,0Zm3.4-4.414a3.852,3.852,0,0,0-3.516,3.688c.69,0,2.269,0,3.527-.008Z" transform="translate(-1362.353 -584.994)"/></g><g transform="translate(0.063)"><path class="a" d="M1367.22,525.395a4.575,4.575,0,0,1-4.52-4.652.369.369,0,0,1,.366-.361l4.14-.013a.363.363,0,0,1,.364.362l.013,4.3a.362.362,0,0,1-.363.364Zm-3.784-4.288a3.85,3.85,0,0,0,3.42,3.539l-.011-3.55Z" transform="translate(-1362.7 -520.369)"/></g></g><g transform="translate(2.213 3.682)"><path class="a" d="M1307.364,551.771l-.042-.725a5.8,5.8,0,0,0,1.012-.148l.169.706A6.521,6.521,0,0,1,1307.364,551.771Zm2.232-.534-.291-.665a5.779,5.779,0,0,0,.9-.492l.4.6A6.5,6.5,0,0,1,1309.6,551.237Zm1.906-1.278-.5-.523a5.835,5.835,0,0,0,.672-.773l.588.426A6.529,6.529,0,0,1,1311.5,549.959Zm1.347-1.858-.654-.316a5.778,5.778,0,0,0,.361-.958l.7.195A6.488,6.488,0,0,1,1312.849,548.1Zm.616-2.212-.723-.068c.017-.181.025-.365.025-.547v-.02c0-.152-.007-.306-.019-.457l.724-.059c.014.17.021.343.022.515v.021C1313.493,545.479,1313.484,545.686,1313.464,545.889Zm-.89-2.1a5.806,5.806,0,0,0-.349-.962l.658-.307a6.551,6.551,0,0,1,.393,1.083Zm-.863-1.847a5.83,5.83,0,0,0-.662-.781l.511-.517a6.584,6.584,0,0,1,.745.879Z" transform="translate(-1307.322 -540.644)"/></g><g transform="translate(10.117 7.04)"><path class="a" d="M1352.266,561.971a1.417,1.417,0,1,1,1.417-1.421,1.407,1.407,0,0,1-1.417,1.421Zm0-2.107a.69.69,0,1,0,.691.688A.692.692,0,0,0,1352.266,559.864Z" transform="translate(-1350.85 -559.138)"/></g></g><g transform="translate(0 40.862)"><g transform="translate(6.097)"><path class="a" d="M1029.779,489.434h-.726v-5.239a1.223,1.223,0,0,1,1.222-1.222h11.469v.726h-11.469a.5.5,0,0,0-.5.5Z" transform="translate(-1029.053 -482.973)"/></g><g transform="translate(6.461 3.587)"><rect class="a" width="6.456" height="0.726"/></g><g transform="translate(0 6.097)"><path class="a" d="M1014.044,534.137h-17.35a1.223,1.223,0,0,1-1.222-1.222V517.775a1.223,1.223,0,0,1,1.222-1.222H1014v.726h-17.3a.5.5,0,0,0-.5.5v15.141a.5.5,0,0,0,.5.5h17.35Z" transform="translate(-995.473 -516.553)"/></g><g transform="translate(2.87 8.967)"><path class="a" d="M1018.25,537.745H1012.2a.926.926,0,0,1-.926-.925v-3.538a.926.926,0,0,1,.926-.925h6.049a.926.926,0,0,1,.925.925v3.538A.926.926,0,0,1,1018.25,537.745Zm-6.049-4.663a.2.2,0,0,0-.2.2v3.538a.2.2,0,0,0,.2.2h6.049a.2.2,0,0,0,.2-.2v-3.538a.2.2,0,0,0-.2-.2Z" transform="translate(-1011.276 -532.356)"/><g transform="translate(2.152 0.422)"><rect class="a" width="0.726" height="4.245"/></g><g transform="translate(4.663 1.9)"><rect class="a" width="0.726" height="2.767"/></g><g transform="translate(5.026 2.869)"><rect class="a" width="2.511" height="0.726"/></g><g transform="translate(0.363 2.152)"><rect class="a" width="2.511" height="0.726"/></g></g></g></g></g><g transform="translate(1013.807 299.017)"><g transform="translate(0 0)"><g transform="translate(11.583 0)"><path class="b" d="M1161.141,391.881h-.908v-9.6a.454.454,0,0,1,.454-.454h17.66a.454.454,0,0,1,.454.454V387h-.908v-4.261h-16.752Z" transform="translate(-1160.233 -381.83)"/></g><g transform="translate(0.428 39.896)"><path class="b" d="M1099.113,604.333l-.313-.852,5.185-1.908a.453.453,0,0,1,.313,0l4.824,1.775-.313.852-4.667-1.718Z" transform="translate(-1098.8 -601.544)"/></g><g transform="translate(0.428 7.794)"><path class="b" d="M1109.326,427.571a.45.45,0,0,1-.156-.028l-5.028-1.851-5.028,1.851-.313-.852,5.185-1.909a.454.454,0,0,1,.313,0l5.109,1.88,12.706-.026,0,.908-12.788.026Z" transform="translate(-1098.8 -424.754)"/></g><g transform="translate(5.368 8.367)"><rect class="b" width="0.908" height="32.207"/></g><g transform="translate(17.893 16.121)"><path class="b" d="M1200.832,481.5a6.411,6.411,0,0,1-.879-.061,5.582,5.582,0,0,1-4.971-5.332v-5.494h.912V476.1a4.711,4.711,0,0,0,4.195,4.5,5.412,5.412,0,0,0,.743.051Z" transform="translate(-1194.982 -470.611)"/></g><g transform="translate(16.557 15.667)"><rect class="b" width="2.982" height="0.908"/></g><g transform="translate(26.696 34.752)"><rect class="b" width="1.789" height="0.908"/></g><g transform="translate(23.118 34.752)"><rect class="b" width="1.789" height="0.908"/></g><g transform="translate(19.539 34.752)"><rect class="b" width="1.789" height="0.908"/></g><g transform="translate(10.139 10.157)"><path class="b" d="M1178.382,473.408h-25.646a.454.454,0,0,1-.454-.454V437.765h.908V472.5h24.738V459.531h.908v13.422A.454.454,0,0,1,1178.382,473.408Z" transform="translate(-1152.282 -437.765)"/></g><g transform="translate(29.877 2.55)"><path class="b" d="M1267.8,399.995h-.908v-3.214h-5.908v-.908h6.362a.454.454,0,0,1,.454.454Z" transform="translate(-1260.985 -395.872)"/></g><g transform="translate(22.667 4.401)"><g transform="translate(10.314 1.439)"><path class="b" d="M1283.1,438.722l-.464-.781,10.461-6.219-9.3-15.637a.772.772,0,0,0-.543-.369l-5.186-.831.144-.9,5.186.831a1.676,1.676,0,0,1,1.18.8l9.527,16.027a.454.454,0,0,1-.158.622Z" transform="translate(-1278.077 -413.99)"/></g><g transform="translate(6.07 3.637)"><path class="b" d="M1256.675,430.039a1.971,1.971,0,1,1,1.971-1.971A1.974,1.974,0,0,1,1256.675,430.039Zm0-3.035a1.063,1.063,0,1,0,1.063,1.063A1.065,1.065,0,0,0,1256.675,427Z" transform="translate(-1254.704 -426.096)"/></g><g transform="translate(0.454 10.381)"><rect class="b" width="14.837" height="0.908"/></g><path class="b" d="M1236.569,433.876h-14.837a.454.454,0,0,1-.454-.454V412.944a1.8,1.8,0,0,1,.646-1.383l6.07-5.076a1.8,1.8,0,0,1,2.313,0l6.069,5.076a1.8,1.8,0,0,1,.646,1.383v20.478A.454.454,0,0,1,1236.569,433.876Zm-14.383-.908h13.929V412.944a.892.892,0,0,0-.321-.686l-6.07-5.076a.893.893,0,0,0-1.148,0l-6.07,5.076a.893.893,0,0,0-.321.686Z" transform="translate(-1221.278 -406.065)"/><g transform="translate(2.698 13.079)"><path class="b" d="M1241.478,488.779a5.343,5.343,0,1,1,5.343-5.343A5.349,5.349,0,0,1,1241.478,488.779Zm0-9.779a4.435,4.435,0,1,0,4.435,4.435A4.44,4.44,0,0,0,1241.478,479Z" transform="translate(-1236.135 -478.092)"/></g></g><g transform="translate(0 2.546)"><path class="b" d="M1107.633,439.1H1096.9a.454.454,0,0,1-.454-.454V396.3a.454.454,0,0,1,.454-.454h11.583v.908h-11.129v41.438h10.281Z" transform="translate(-1096.444 -395.849)"/></g></g></g></g></svg>