<svg xmlns="http://www.w3.org/2000/svg" width="70.734" height="66.399" viewBox="0 0 70.734 66.399"><defs><style>.a{fill:#e17f82;}.b{fill:#fff;}</style></defs><g transform="translate(-918 -569.722)"><g transform="translate(918 575.391)"><g transform="translate(18.676)"><g transform="translate(0)"><path class="a" d="M368.806,593.293l1.173-.525-12.16-35.805a5.678,5.678,0,0,0-5.344-3.593,5.856,5.856,0,0,0-2.411.516l-.1.046a5.486,5.486,0,0,0-3,3.3,5.17,5.17,0,0,0,.55,4.332Zm-16.331-38.68a4.364,4.364,0,0,1,4.107,2.75l10.591,31.185-18.549-27.639a3.968,3.968,0,0,1-.412-3.316,4.218,4.218,0,0,1,2.31-2.538l.1-.046A4.505,4.505,0,0,1,352.475,554.612Z" transform="translate(-346.715 -553.369)"/></g><g transform="translate(3.291 3.133)"><path class="a" d="M383.79,565.576a2.522,2.522,0,0,0,1.039-.222,2.352,2.352,0,0,0,1.257-1.316,2.2,2.2,0,0,0-.089-1.776,2.465,2.465,0,0,0-2.21-1.333,2.525,2.525,0,0,0-1.04.222,2.357,2.357,0,0,0-1.258,1.316,2.207,2.207,0,0,0,.089,1.776A2.466,2.466,0,0,0,383.79,565.576Zm0-3.4a1.147,1.147,0,0,1,1.028.62,1.026,1.026,0,0,1,.041.826,1.1,1.1,0,0,1-.585.612,1.188,1.188,0,0,1-1.512-.517,1.025,1.025,0,0,1-.041-.826,1.094,1.094,0,0,1,.585-.612A1.178,1.178,0,0,1,383.787,562.171Z" transform="translate(-381.344 -560.928)"/></g></g><g transform="translate(0 42.104)"><rect class="a" width="43.992" height="1.243" transform="translate(0 0)"/></g><g transform="translate(7.67 38.968)"><path class="a" d="M373.384,648.642h1.742V647.4h-1.742Zm3.485,0h1.742V647.4h-1.742Zm3.485,0H382.1V647.4h-1.742Zm3.485,0h1.742V647.4h-1.742Zm3.485,0h1.742V647.4h-1.742Zm3.485,0h1.742V647.4h-1.742Zm3.485,0h1.742V647.4h-1.742Z" transform="translate(-373.384 -647.399)"/></g><g transform="translate(0 4.226)"><path class="a" d="M401.553,595.062h1.307v-.054a6.12,6.12,0,0,0-6.259-5.955H376.635a3.367,3.367,0,0,1-3.444-3.276V585.7a3.367,3.367,0,0,1,3.444-3.276h12.313a4.891,4.891,0,0,0,5-4.759v-.084a4.891,4.891,0,0,0-5-4.758H383.52a4.069,4.069,0,0,1-4.162-3.96v-.093a4.069,4.069,0,0,1,4.162-3.959h4.915v-1.243H383.52a5.347,5.347,0,0,0-5.469,5.2v.093a5.347,5.347,0,0,0,5.469,5.2h5.429a3.613,3.613,0,0,1,3.7,3.515v.084a3.613,3.613,0,0,1-3.7,3.516H376.635a4.644,4.644,0,0,0-4.751,4.519v.079a4.645,4.645,0,0,0,4.751,4.519H396.6a4.842,4.842,0,0,1,4.952,4.712Z" transform="translate(-371.884 -563.566)"/></g></g><g transform="translate(944.027 611.912)"><path class="b" d="M.543,130.25l.007-.012a4.077,4.077,0,0,1,2.163-1.757l5.9-2.068a.9.9,0,0,1,.811.11l1.008.706a5.3,5.3,0,0,0,4.642.691c1.517-.489,3.288-1.436,3.825-2.451l.44-.831-3.26-4.673a.823.823,0,0,1,.111-1.073l3.509-3.344a.9.9,0,0,1,.883-.2l5.075,1.59c1.252-.165,8.337-1.154,11.94-2.906l2.809-1.366a2.16,2.16,0,0,1,1.873-.012,2.035,2.035,0,0,1,1.145,1.433l1.112,5.371a7.919,7.919,0,0,1-.055,3.48L41.349,136a.868.868,0,0,1-.851.653H35.231a.859.859,0,0,1-.874-.844v-7.177a5.169,5.169,0,0,0-5.151.741L21.642,135.4a5.819,5.819,0,0,1-3.614,1.254H5.557a5.888,5.888,0,0,1-2.292-.461l-.8-.335A3.962,3.962,0,0,1,0,132.222a3.866,3.866,0,0,1,.543-1.972Zm20.009-13.139L17.937,119.6l2.775,3.977.457-.144a5.053,5.053,0,0,0,3.086-2.671.829.829,0,0,1,.047-.1,4.81,4.81,0,0,0,.4-1.933v-.317Zm15.553,17.855h3.7l2.979-12.411c.037-.154.066-.308.091-.462h-.548a6.124,6.124,0,0,0-6.22,6.01v6.864Zm-32.941-.656.8.335a4.1,4.1,0,0,0,1.6.321H18.028a4.029,4.029,0,0,0,2.5-.868l7.564-6.026a6.96,6.96,0,0,1,6.365-1.2,7.9,7.9,0,0,1,7.866-6.469h.6c-.022-.206-.053-.412-.1-.617l-.5-2.395-3.016,1.326c-.276.131-.808.313-1.525.555-.288.1-.56.189-.7.242a.9.9,0,0,1-.316.058.874.874,0,0,1-.814-.539.835.835,0,0,1,.5-1.093c.17-.064.443-.156.759-.262.455-.153,1.144-.385,1.333-.478l.031-.014,3.4-1.5-.264-1.276a.347.347,0,0,0-.2-.246.367.367,0,0,0-.322,0l-2.809,1.366c-3.508,1.706-9.755,2.692-11.933,3v.195a6.464,6.464,0,0,1-.134,1.31c.835-.118,1.991-.294,3.271-.527a.872.872,0,0,1,1.02.673.846.846,0,0,1-.7.986c-1.893.345-3.491.564-4.256.662a6.8,6.8,0,0,1-3.949,3.207l-.74.233-.51.964c-1.023,1.934-3.954,3-4.828,3.284a7.1,7.1,0,0,1-6.22-.925l-.633-.444-5.469,1.916a2.341,2.341,0,0,0-1.242,1.009l-.007.012a2.222,2.222,0,0,0-.312,1.132A2.276,2.276,0,0,0,3.164,134.311Z" transform="translate(0 -112.445)"/><path class="b" d="M121.7,188.732a.845.845,0,1,1-.874.845A.86.86,0,0,1,121.7,188.732Z" transform="translate(-88.423 -182.292)"/><path class="b" d="M250.948,195.666a.845.845,0,1,1-.874.845A.86.86,0,0,1,250.948,195.666Z" transform="translate(-228.965 -188.641)"/></g><g transform="matrix(-0.978, -0.208, 0.208, -0.978, 980.092, 606.144)"><g transform="translate(9.258 0)"><path class="a" d="M13.312,7.908H9.424v-1h3.889a2.925,2.925,0,0,0,2.922-2.922V3.919A2.925,2.925,0,0,0,13.312,1H0V0H13.312a3.924,3.924,0,0,1,3.919,3.919v.069A3.924,3.924,0,0,1,13.312,7.908Z" transform="translate(0)"/></g><g transform="translate(0 13.821)"><path class="a" d="M34.48,16.085H0V6.911H30.56a2.925,2.925,0,0,0,2.922-2.922V3.92A2.926,2.926,0,0,0,30.56,1H14.247V0H30.56a3.924,3.924,0,0,1,3.92,3.92v.069a3.924,3.924,0,0,1-3.92,3.92H1v7.179H33.482V7.437h1Z" transform="translate(0 0)"/></g><g transform="translate(9.646 6.911)"><path class="a" d="M13.36,7.909H3.92A3.924,3.924,0,0,1,0,3.989V3.92A3.924,3.924,0,0,1,3.92,0h7.112V1H3.92A2.925,2.925,0,0,0,1,3.92v.069A2.925,2.925,0,0,0,3.92,6.911h9.44Z"/></g><g transform="translate(1.344 0.021)"><path class="a" d="M7.581,9.763H.033L0,0H16.007V1H1l.027,7.768H7.581Z"/></g><g transform="translate(25.492 3.465)"><rect class="a" width="0.998" height="9.313" transform="translate(0 0)"/></g><g transform="translate(9.645 10.83)"><rect class="a" width="0.998" height="8.932" transform="translate(0 0)"/></g><g transform="translate(0 20.732)"><path class="a" d="M4.546,9.174H0V0H4.546V2.27a2.37,2.37,0,0,1,0,4.634ZM1,8.176h2.55V5.959h.5a1.372,1.372,0,0,0,0-2.744h-.5V1H1Z" transform="translate(0 0)"/></g><g transform="translate(12.584 14.32)"><g transform="translate(0 0)"><rect class="a" width="0.998" height="3.326"/></g><g transform="translate(8.925 0)"><rect class="a" width="0.998" height="3.326"/></g><g transform="translate(17.85 0)"><rect class="a" width="0.998" height="3.326"/></g><g transform="translate(4.462 0.277)"><rect class="a" width="0.998" height="1.386"/></g><g transform="translate(13.387 0.277)"><rect class="a" width="0.998" height="1.386"/></g></g><g transform="translate(6.488 0.628)"><g transform="translate(0 0)"><rect class="a" width="0.998" height="3.326"/></g><g transform="translate(8.925 0)"><rect class="a" width="0.998" height="3.326"/></g><g transform="translate(4.462 0.277)"><rect class="a" width="0.998" height="1.386"/></g><g transform="translate(13.387 0.277)"><rect class="a" width="0.998" height="1.386"/></g></g><g transform="translate(7.705 23.254)"><path class="a" d="M22.617,1h-1.33V0h1.33ZM19.956,1h-1.33V0h1.33ZM17.3,1h-1.33V0H17.3ZM14.635,1H13.3V0h1.33ZM11.974,1h-1.33V0h1.33ZM9.313,1H7.983V0h1.33ZM6.652,1H5.322V0h1.33ZM3.991,1H2.661V0h1.33ZM1.33,1H0V0H1.33Z"/></g></g></g></svg>