<svg xmlns="http://www.w3.org/2000/svg" width="48.474" height="48.474" viewBox="0 0 48.474 48.474"><defs><style>.a{fill:#e17f82;}</style></defs><path class="a" d="M62.05,16H18.424A2.426,2.426,0,0,0,16,18.424V52.356a2.426,2.426,0,0,0,2.424,2.424h16.9l-.673,8.079h-.872v1.616H46.7V62.858h-.872l-.673-8.079h16.9a2.426,2.426,0,0,0,2.424-2.424V18.424A2.426,2.426,0,0,0,62.05,16ZM17.616,18.424a.809.809,0,0,1,.808-.808H62.05a.809.809,0,0,1,.808.808V48.316H17.616ZM44.206,62.858H36.268l.673-8.079h6.592Zm18.652-10.5a.809.809,0,0,1-.808.808H18.424a.809.809,0,0,1-.808-.808V49.932H62.858Z" transform="translate(-16 -16)"/><path class="a" d="M234.424,420.847A2.424,2.424,0,1,0,232,418.424,2.426,2.426,0,0,0,234.424,420.847Zm0-3.232a.808.808,0,1,1-.808.808A.809.809,0,0,1,234.424,417.616Z" transform="translate(-210.187 -375.605)"/></svg>