<svg xmlns="http://www.w3.org/2000/svg" width="25.949" height="18.448" viewBox="0 0 25.949 18.448"><defs><style>.a{fill:#181c28;}</style></defs><g transform="translate(0 -4.482)"><g transform="translate(4.52 13.376)"><path class="a" d="M24.088,20.465a.414.414,0,0,1-.286-.114l-4.815-4.517a.418.418,0,1,1,.573-.609l4.815,4.517a.418.418,0,0,1-.287.723Z" transform="translate(-7.598 -15.111)"/><path class="a" d="M5.82,20.466a.418.418,0,0,1-.287-.723l4.816-4.517a.418.418,0,1,1,.573.609L6.106,20.352A.414.414,0,0,1,5.82,20.466Z" transform="translate(-5.402 -15.112)"/></g><path class="a" d="M23.857,22.93H2.092A2.094,2.094,0,0,1,0,20.838V6.574A2.094,2.094,0,0,1,2.092,4.482H23.857a2.094,2.094,0,0,1,2.092,2.092V20.838A2.094,2.094,0,0,1,23.857,22.93ZM2.092,5.319A1.257,1.257,0,0,0,.837,6.574V20.838a1.257,1.257,0,0,0,1.255,1.255H23.857a1.257,1.257,0,0,0,1.255-1.255V6.574a1.257,1.257,0,0,0-1.255-1.255Z"/><path class="a" d="M13.082,15.938a2.34,2.34,0,0,1-1.536-.554L.8,6.012a.418.418,0,1,1,.55-.631L12.1,14.753a1.566,1.566,0,0,0,1.972,0L24.8,5.4a.419.419,0,0,1,.551.631l-10.73,9.357A2.338,2.338,0,0,1,13.082,15.938Z" transform="translate(-0.107 -0.13)"/></g></svg>