<svg xmlns="http://www.w3.org/2000/svg" width="26.1" height="30.3" viewBox="0 0 26.1 30.3"><defs><style>.a{fill:#fff;stroke:#171924;stroke-width:0.3px;}</style></defs><g transform="translate(-33.2 0.15)"><g transform="translate(47.122 28.98)"><path class="a" d="M253.209,460.2h-.655a.5.5,0,1,0,0,1.008h.655a.5.5,0,1,0,0-1.008Z" transform="translate(-252.05 -460.201)"/></g><g transform="translate(33.35 0)"><g transform="translate(0 0)"><path class="a" d="M55.145,10.5A3.988,3.988,0,0,0,59.15,6.531a4.114,4.114,0,0,0-.113-.963,3.954,3.954,0,0,0-1.474-2.242,3.374,3.374,0,0,0-.346-.239,4.01,4.01,0,0,0-4.994.693A8.167,8.167,0,0,0,39.559,2.393a8.04,8.04,0,0,0-1.02,1.241.517.517,0,0,0-.151.233,7.9,7.9,0,0,0-1.077,2.758h.013a7.96,7.96,0,0,0-.132,1.549V11.9a1.961,1.961,0,0,0-.812.491,2.033,2.033,0,0,0,1.159,3.463,8.159,8.159,0,0,0,4.817,5.164v1.1H39.118a5.776,5.776,0,0,0-5.768,5.749V29.5a.5.5,0,0,0,1.008,0V27.866a4.773,4.773,0,0,1,4.761-4.742h3.545l2.21,2.324V29.5a.5.5,0,1,0,1.008,0V25.46l2.412-2.336H51.87a4.731,4.731,0,0,1,4.717,4.742V29.5a.5.5,0,0,0,1.008,0V27.866a5.742,5.742,0,0,0-5.724-5.749H48.6V20.895a8.2,8.2,0,0,0,4.534-5.031,2.044,2.044,0,0,0,1.278-3.476,2.181,2.181,0,0,0-.894-.523V10.152A3.938,3.938,0,0,0,55.145,10.5ZM36.782,13.835a1.063,1.063,0,0,1,.315-.73.238.238,0,0,1,.1-.076v.378a8.246,8.246,0,0,0,.088,1.3A1.045,1.045,0,0,1,36.782,13.835Zm21.36-7.28a3,3,0,0,1-3.974,2.777ZM40.271,3.105a7.148,7.148,0,0,1,5.844-2.053A8.228,8.228,0,0,1,39.824,3.6C39.968,3.426,40.113,3.262,40.271,3.105ZM39.15,4.553a9.231,9.231,0,0,0,1.02.057,9.331,9.331,0,0,0,7.116-3.331,7.358,7.358,0,0,1,1.48.6A9.442,9.442,0,0,1,42,6.436a10.7,10.7,0,0,1-3.583-.094A6.917,6.917,0,0,1,39.15,4.553ZM38.237,7.33a11.6,11.6,0,0,0,2.236.22A11.675,11.675,0,0,0,42.1,7.438a10.505,10.505,0,0,0,7.513-5.013,7.141,7.141,0,0,1,2.065,2.418.57.57,0,0,0,.082.164,6.893,6.893,0,0,1,.655,2.078,6.992,6.992,0,0,1,.082,1.089V8.7a6.176,6.176,0,0,1-2.254-3.136.5.5,0,0,0-.926-.126,8.215,8.215,0,0,1-6.776,4.018,14.93,14.93,0,0,1-4.332-.246V8.168C38.2,7.891,38.218,7.607,38.237,7.33Zm9.351,15.082L45.4,24.528l-2.028-2.1V21.335a8.207,8.207,0,0,0,1.958.233,7.812,7.812,0,0,0,2.261-.315ZM52.5,13.407A7.148,7.148,0,1,1,38.205,13.4V10.24a15.684,15.684,0,0,0,3.016.283,13.687,13.687,0,0,0,1.4-.069,9.468,9.468,0,0,0,7.009-3.678A7.079,7.079,0,0,0,52.5,9.893Zm.252-8.678A3,3,0,0,1,56.4,3.791l-3.13,2.393A8.315,8.315,0,0,0,52.752,4.73Zm.945,8.375a1.034,1.034,0,0,1,0,1.461.969.969,0,0,1-.3.208,8.26,8.26,0,0,0,.113-1.36v-.447A1.075,1.075,0,0,1,53.7,13.105Zm-.189-4.54v-.39c0-.3-.019-.586-.044-.875l3.8-2.9a2.977,2.977,0,0,1,.686,1.064Z" transform="translate(-33.35 0)"/></g></g><g transform="translate(47.122 27.028)"><path class="a" d="M253.209,429.2h-.655a.5.5,0,1,0,0,1.008h.655a.5.5,0,0,0,0-1.008Z" transform="translate(-252.05 -429.201)"/></g><g transform="translate(40.283 12.5)"><g transform="translate(0)"><path class="a" d="M146.533,198.5a.505.505,0,0,0-.5.5v.327a.806.806,0,0,1-.8.806.775.775,0,0,1-.775-.8v-.327a.5.5,0,1,0-1.008,0v.327a1.789,1.789,0,0,0,.51,1.278s-.006.006,0,.006a1.8,1.8,0,0,0,3.079-1.285v-.327A.507.507,0,0,0,146.533,198.5Z" transform="translate(-143.448 -198.501)"/></g></g><g transform="translate(46.763 12.5)"><path class="a" d="M249.5,198.5a.505.505,0,0,0-.5.5v.327a.8.8,0,0,1-.806.806.828.828,0,0,1-.838-.8v-.327a.5.5,0,1,0-1.008,0v.327a1.846,1.846,0,0,0,.542,1.278l.019.006A1.814,1.814,0,0,0,250,199.339v-.327A.494.494,0,0,0,249.5,198.5Z" transform="translate(-246.35 -198.501)"/></g></g></svg>