<svg xmlns="http://www.w3.org/2000/svg" width="15.35" height="10.626" viewBox="0 0 15.35 10.626"><g transform="translate(0 -75.075)"><path d="M15.072,79.486,12.444,75.9a2.21,2.21,0,0,0-1.63-.828H1.233A1.235,1.235,0,0,0,0,76.308v8.159A1.235,1.235,0,0,0,1.233,85.7h9.581a2.2,2.2,0,0,0,1.63-.828l2.627-3.584A1.6,1.6,0,0,0,15.072,79.486Zm-.686,1.306-2.627,3.584a1.38,1.38,0,0,1-.947.478H1.233A.385.385,0,0,1,.85,84.47V76.308a.385.385,0,0,1,.384-.384h9.581a1.4,1.4,0,0,1,.947.478l2.627,3.584A.766.766,0,0,1,14.386,80.792Z"/></g></svg>