<svg xmlns="http://www.w3.org/2000/svg" width="23" height="23" viewBox="0 0 23 23"><defs><style>.a{fill:#202020;}</style></defs><path class="a" d="M11.5,0A11.5,11.5,0,0,0,1.741,17.587C1.287,19.178.467,22.189.458,22.22a.442.442,0,0,0,.557.539l4.558-1.4A11.5,11.5,0,1,0,11.5,0Zm0,22.115A10.589,10.589,0,0,1,5.869,20.5a.442.442,0,0,0-.235-.067.45.45,0,0,0-.13.019l-3.98,1.225c.292-1.067.818-2.976,1.123-4.038a.444.444,0,0,0-.054-.363A10.616,10.616,0,1,1,11.5,22.115Z"/><path class="a" d="M24.221,19.661c-.816-.453-1.512-.908-2.019-1.24-.387-.253-.667-.436-.873-.539a1,1,0,0,0-1.174.083.442.442,0,0,0-.055.067,6.218,6.218,0,0,1-1.6,1.795,10.65,10.65,0,0,1-2.719-1.761,5.889,5.889,0,0,1-2.152-2.718c.8-.825,1.091-1.345,1.091-1.936A12.517,12.517,0,0,0,13.04,10c-.258-.257-.839-.3-1.726-.121a.447.447,0,0,0-.226.121c-.107.107-2.622,2.672-1.427,5.779,1.312,3.411,4.679,7.375,8.972,8.019a9.3,9.3,0,0,0,1.373.109,4.072,4.072,0,0,0,4.436-3.791A.441.441,0,0,0,24.221,19.661Zm-5.457,3.266c-4.54-.681-7.4-5.179-8.278-7.462-.871-2.265.736-4.284,1.139-4.74a3.336,3.336,0,0,1,.818-.057,15.885,15.885,0,0,1,1.39,2.744c0,.232-.076.556-.976,1.457a.44.44,0,0,0-.13.313c0,2.316,4.885,5.529,5.75,5.529.752,0,1.733-1.265,2.292-2.089a.42.42,0,0,1,.164.051c.159.08.435.26.784.488.461.3,1.073.7,1.8,1.116C23.186,21.857,22.268,23.454,18.764,22.928Z" transform="translate(-5.209 -5.452)"/></svg>